<svg width="48" height="49" viewBox="0 0 48 49" fill="none" xmlns="http://www.w3.org/2000/svg">
<g clip-path="url(#clip0_303_1315)">
<g clip-path="url(#clip1_303_1315)">
<g clip-path="url(#clip2_303_1315)">
<mask id="mask0_303_1315" style="mask-type:luminance" maskUnits="userSpaceOnUse" x="0" y="0" width="48" height="49">
<path d="M48 0.915039H0V48.915H48V0.915039Z" fill="white"/>
</mask>
<g mask="url(#mask0_303_1315)">
<path d="M19.5 41.415C19.1022 41.415 18.7206 41.5731 18.4393 41.8544C18.158 42.1357 18 42.5172 18 42.915C18 43.3129 18.158 43.6944 18.4393 43.9757C18.7206 44.257 19.1022 44.415 19.5 44.415C19.8978 44.415 20.2794 44.257 20.5607 43.9757C20.842 43.6944 21 43.3129 21 42.915C21 42.5172 20.842 42.1357 20.5607 41.8544C20.2794 41.5731 19.8978 41.415 19.5 41.415ZM24 36.915C23.6022 36.915 23.2206 37.0731 22.9393 37.3544C22.658 37.6357 22.5 38.0172 22.5 38.415C22.5 38.8129 22.658 39.1944 22.9393 39.4757C23.2206 39.757 23.6022 39.915 24 39.915C24.3978 39.915 24.7794 39.757 25.0607 39.4757C25.342 39.1944 25.5 38.8129 25.5 38.415C25.5 38.0172 25.342 37.6357 25.0607 37.3544C24.7794 37.0731 24.3978 36.915 24 36.915ZM24 45.915C23.6022 45.915 23.2206 46.0731 22.9393 46.3544C22.658 46.6357 22.5 47.0172 22.5 47.415C22.5 47.8129 22.658 48.1944 22.9393 48.4757C23.2206 48.757 23.6022 48.915 24 48.915C24.3978 48.915 24.7794 48.757 25.0607 48.4757C25.342 48.1944 25.5 47.8129 25.5 47.415C25.5 47.0172 25.342 46.6357 25.0607 46.3544C24.7794 46.0731 24.3978 45.915 24 45.915ZM24 41.415C23.6022 41.415 23.2206 41.5731 22.9393 41.8544C22.658 42.1357 22.5 42.5172 22.5 42.915C22.5 43.3129 22.658 43.6944 22.9393 43.9757C23.2206 44.257 23.6022 44.415 24 44.415C24.3978 44.415 24.7794 44.257 25.0607 43.9757C25.342 43.6944 25.5 43.3129 25.5 42.915C25.5 42.5172 25.342 42.1357 25.0607 41.8544C24.7794 41.5731 24.3978 41.415 24 41.415ZM28.5 41.415C28.1022 41.415 27.7206 41.5731 27.4393 41.8544C27.158 42.1357 27 42.5172 27 42.915C27 43.3129 27.158 43.6944 27.4393 43.9757C27.7206 44.257 28.1022 44.415 28.5 44.415C28.8978 44.415 29.2794 44.257 29.5607 43.9757C29.842 43.6944 30 43.3129 30 42.915C30 42.5172 29.842 42.1357 29.5607 41.8544C29.2794 41.5731 28.8978 41.415 28.5 41.415ZM33 41.415C32.6022 41.415 32.2206 41.5731 31.9393 41.8544C31.658 42.1357 31.5 42.5172 31.5 42.915C31.5 43.3129 31.658 43.6944 31.9393 43.9757C32.2206 44.257 32.6022 44.415 33 44.415C33.3978 44.415 33.7794 44.257 34.0607 43.9757C34.342 43.6944 34.5 43.3129 34.5 42.915C34.5 42.5172 34.342 42.1357 34.0607 41.8544C33.7794 41.5731 33.3978 41.415 33 41.415ZM19.5 5.41504C19.1022 5.41504 18.7206 5.57307 18.4393 5.85438C18.158 6.13568 18 6.51721 18 6.91504C18 7.31286 18.158 7.69439 18.4393 7.9757C18.7206 8.257 19.1022 8.41504 19.5 8.41504C19.8978 8.41504 20.2794 8.257 20.5607 7.9757C20.842 7.69439 21 7.31286 21 6.91504C21 6.51721 20.842 6.13568 20.5607 5.85438C20.2794 5.57307 19.8978 5.41504 19.5 5.41504ZM15 5.41504C14.6022 5.41504 14.2206 5.57307 13.9393 5.85438C13.658 6.13568 13.5 6.51721 13.5 6.91504C13.5 7.31286 13.658 7.69439 13.9393 7.9757C14.2206 8.257 14.6022 8.41504 15 8.41504C15.3978 8.41504 15.7794 8.257 16.0607 7.9757C16.342 7.69439 16.5 7.31286 16.5 6.91504C16.5 6.51721 16.342 6.13568 16.0607 5.85438C15.7794 5.57307 15.3978 5.41504 15 5.41504ZM10.5 9.91504C10.1022 9.91504 9.72064 10.0731 9.43934 10.3544C9.15804 10.6357 9 11.0172 9 11.415C9 11.8129 9.15804 12.1944 9.43934 12.4757C9.72064 12.757 10.1022 12.915 10.5 12.915C10.8978 12.915 11.2794 12.757 11.5607 12.4757C11.842 12.1944 12 11.8129 12 11.415C12 11.0172 11.842 10.6357 11.5607 10.3544C11.2794 10.0731 10.8978 9.91504 10.5 9.91504ZM37.5 9.91504C37.1022 9.91504 36.7206 10.0731 36.4393 10.3544C36.158 10.6357 36 11.0172 36 11.415C36 11.8129 36.158 12.1944 36.4393 12.4757C36.7206 12.757 37.1022 12.915 37.5 12.915C37.8978 12.915 38.2794 12.757 38.5607 12.4757C38.842 12.1944 39 11.8129 39 11.415C39 11.0172 38.842 10.6357 38.5607 10.3544C38.2794 10.0731 37.8978 9.91504 37.5 9.91504ZM37.5 36.915C37.1022 36.915 36.7206 37.0731 36.4393 37.3544C36.158 37.6357 36 38.0172 36 38.415C36 38.8129 36.158 39.1944 36.4393 39.4757C36.7206 39.757 37.1022 39.915 37.5 39.915C37.8978 39.915 38.2794 39.757 38.5607 39.4757C38.842 39.1944 39 38.8129 39 38.415C39 38.0172 38.842 37.6357 38.5607 37.3544C38.2794 37.0731 37.8978 36.915 37.5 36.915ZM10.5 36.915C10.1022 36.915 9.72064 37.0731 9.43934 37.3544C9.15804 37.6357 9 38.0172 9 38.415C9 38.8129 9.15804 39.1944 9.43934 39.4757C9.72064 39.757 10.1022 39.915 10.5 39.915C10.8978 39.915 11.2794 39.757 11.5607 39.4757C11.842 39.1944 12 38.8129 12 38.415C12 38.0172 11.842 37.6357 11.5607 37.3544C11.2794 37.0731 10.8978 36.915 10.5 36.915ZM24 5.41504C23.6022 5.41504 23.2206 5.57307 22.9393 5.85438C22.658 6.13568 22.5 6.51721 22.5 6.91504C22.5 7.31286 22.658 7.69439 22.9393 7.9757C23.2206 8.257 23.6022 8.41504 24 8.41504C24.3978 8.41504 24.7794 8.257 25.0607 7.9757C25.342 7.69439 25.5 7.31286 25.5 6.91504C25.5 6.51721 25.342 6.13568 25.0607 5.85438C24.7794 5.57307 24.3978 5.41504 24 5.41504ZM28.5 5.41504C28.1022 5.41504 27.7206 5.57307 27.4393 5.85438C27.158 6.13568 27 6.51721 27 6.91504C27 7.31286 27.158 7.69439 27.4393 7.9757C27.7206 8.257 28.1022 8.41504 28.5 8.41504C28.8978 8.41504 29.2794 8.257 29.5607 7.9757C29.842 7.69439 30 7.31286 30 6.91504C30 6.51721 29.842 6.13568 29.5607 5.85438C29.2794 5.57307 28.8978 5.41504 28.5 5.41504ZM24 0.915039C23.6022 0.915039 23.2206 1.07307 22.9393 1.35438C22.658 1.63568 22.5 2.01721 22.5 2.41504C22.5 2.81286 22.658 3.19439 22.9393 3.4757C23.2206 3.757 23.6022 3.91504 24 3.91504C24.3978 3.91504 24.7794 3.757 25.0607 3.4757C25.342 3.19439 25.5 2.81286 25.5 2.41504C25.5 2.01721 25.342 1.63568 25.0607 1.35438C24.7794 1.07307 24.3978 0.915039 24 0.915039ZM24 9.91504C23.6022 9.91504 23.2206 10.0731 22.9393 10.3544C22.658 10.6357 22.5 11.0172 22.5 11.415C22.5 11.8129 22.658 12.1944 22.9393 12.4757C23.2206 12.757 23.6022 12.915 24 12.915C24.3978 12.915 24.7794 12.757 25.0607 12.4757C25.342 12.1944 25.5 11.8129 25.5 11.415C25.5 11.0172 25.342 10.6357 25.0607 10.3544C24.7794 10.0731 24.3978 9.91504 24 9.91504ZM24 23.415C23.6022 23.415 23.2206 23.5731 22.9393 23.8544C22.658 24.1357 22.5 24.5172 22.5 24.915C22.5 25.3129 22.658 25.6944 22.9393 25.9757C23.2206 26.257 23.6022 26.415 24 26.415C24.3978 26.415 24.7794 26.257 25.0607 25.9757C25.342 25.6944 25.5 25.3129 25.5 24.915C25.5 24.5172 25.342 24.1357 25.0607 23.8544C24.7794 23.5731 24.3978 23.415 24 23.415ZM19.5 23.415C19.1022 23.415 18.7206 23.5731 18.4393 23.8544C18.158 24.1357 18 24.5172 18 24.915C18 25.3129 18.158 25.6944 18.4393 25.9757C18.7206 26.257 19.1022 26.415 19.5 26.415C19.8978 26.415 20.2794 26.257 20.5607 25.9757C20.842 25.6944 21 25.3129 21 24.915C21 24.5172 20.842 24.1357 20.5607 23.8544C20.2794 23.5731 19.8978 23.415 19.5 23.415ZM28.5 23.415C28.1022 23.415 27.7206 23.5731 27.4393 23.8544C27.158 24.1357 27 24.5172 27 24.915C27 25.3129 27.158 25.6944 27.4393 25.9757C27.7206 26.257 28.1022 26.415 28.5 26.415C28.8978 26.415 29.2794 26.257 29.5607 25.9757C29.842 25.6944 30 25.3129 30 24.915C30 24.5172 29.842 24.1357 29.5607 23.8544C29.2794 23.5731 28.8978 23.415 28.5 23.415ZM24 18.915C23.6022 18.915 23.2206 19.0731 22.9393 19.3544C22.658 19.6357 22.5 20.0172 22.5 20.415C22.5 20.8129 22.658 21.1944 22.9393 21.4757C23.2206 21.757 23.6022 21.915 24 21.915C24.3978 21.915 24.7794 21.757 25.0607 21.4757C25.342 21.1944 25.5 20.8129 25.5 20.415C25.5 20.0172 25.342 19.6357 25.0607 19.3544C24.7794 19.0731 24.3978 18.915 24 18.915ZM24 27.915C23.6022 27.915 23.2206 28.0731 22.9393 28.3544C22.658 28.6357 22.5 29.0172 22.5 29.415C22.5 29.8129 22.658 30.1944 22.9393 30.4757C23.2206 30.757 23.6022 30.915 24 30.915C24.3978 30.915 24.7794 30.757 25.0607 30.4757C25.342 30.1944 25.5 29.8129 25.5 29.415C25.5 29.0172 25.342 28.6357 25.0607 28.3544C24.7794 28.0731 24.3978 27.915 24 27.915ZM42 14.415C41.6022 14.415 41.2206 14.5731 40.9393 14.8544C40.658 15.1357 40.5 15.5172 40.5 15.915C40.5 16.3129 40.658 16.6944 40.9393 16.9757C41.2206 17.257 41.6022 17.415 42 17.415C42.3978 17.415 42.7794 17.257 43.0607 16.9757C43.342 16.6944 43.5 16.3129 43.5 15.915C43.5 15.5172 43.342 15.1357 43.0607 14.8544C42.7794 14.5731 42.3978 14.415 42 14.415ZM42 23.415C41.6022 23.415 41.2206 23.5731 40.9393 23.8544C40.658 24.1357 40.5 24.5172 40.5 24.915C40.5 25.3129 40.658 25.6944 40.9393 25.9757C41.2206 26.257 41.6022 26.415 42 26.415C42.3978 26.415 42.7794 26.257 43.0607 25.9757C43.342 25.6944 43.5 25.3129 43.5 24.915C43.5 24.5172 43.342 24.1357 43.0607 23.8544C42.7794 23.5731 42.3978 23.415 42 23.415ZM42 18.915C41.6022 18.915 41.2206 19.0731 40.9393 19.3544C40.658 19.6357 40.5 20.0172 40.5 20.415C40.5 20.8129 40.658 21.1944 40.9393 21.4757C41.2206 21.757 41.6022 21.915 42 21.915C42.3978 21.915 42.7794 21.757 43.0607 21.4757C43.342 21.1944 43.5 20.8129 43.5 20.415C43.5 20.0172 43.342 19.6357 43.0607 19.3544C42.7794 19.0731 42.3978 18.915 42 18.915ZM42 27.915C41.6022 27.915 41.2206 28.0731 40.9393 28.3544C40.658 28.6357 40.5 29.0172 40.5 29.415C40.5 29.8129 40.658 30.1944 40.9393 30.4757C41.2206 30.757 41.6022 30.915 42 30.915C42.3978 30.915 42.7794 30.757 43.0607 30.4757C43.342 30.1944 43.5 29.8129 43.5 29.415C43.5 29.0172 43.342 28.6357 43.0607 28.3544C42.7794 28.0731 42.3978 27.915 42 27.915ZM37.5 23.415C37.1022 23.415 36.7206 23.5731 36.4393 23.8544C36.158 24.1357 36 24.5172 36 24.915C36 25.3129 36.158 25.6944 36.4393 25.9757C36.7206 26.257 37.1022 26.415 37.5 26.415C37.8978 26.415 38.2794 26.257 38.5607 25.9757C38.842 25.6944 39 25.3129 39 24.915C39 24.5172 38.842 24.1357 38.5607 23.8544C38.2794 23.5731 37.8978 23.415 37.5 23.415ZM46.5 23.415C46.1022 23.415 45.7206 23.5731 45.4393 23.8544C45.158 24.1357 45 24.5172 45 24.915C45 25.3129 45.158 25.6944 45.4393 25.9757C45.7206 26.257 46.1022 26.415 46.5 26.415C46.8978 26.415 47.2794 26.257 47.5607 25.9757C47.842 25.6944 48 25.3129 48 24.915C48 24.5172 47.842 24.1357 47.5607 23.8544C47.2794 23.5731 46.8978 23.415 46.5 23.415ZM6 18.915C5.60218 18.915 5.22064 19.0731 4.93934 19.3544C4.65804 19.6357 4.5 20.0172 4.5 20.415C4.5 20.8129 4.65804 21.1944 4.93934 21.4757C5.22064 21.757 5.60218 21.915 6 21.915C6.39782 21.915 6.77936 21.757 7.06066 21.4757C7.34196 21.1944 7.5 20.8129 7.5 20.415C7.5 20.0172 7.34196 19.6357 7.06066 19.3544C6.77936 19.0731 6.39782 18.915 6 18.915ZM1.5 23.415C1.10218 23.415 0.720644 23.5731 0.43934 23.8544C0.158035 24.1357 0 24.5172 0 24.915C0 25.3129 0.158035 25.6944 0.43934 25.9757C0.720644 26.257 1.10218 26.415 1.5 26.415C1.89782 26.415 2.27936 26.257 2.56066 25.9757C2.84196 25.6944 3 25.3129 3 24.915C3 24.5172 2.84196 24.1357 2.56066 23.8544C2.27936 23.5731 1.89782 23.415 1.5 23.415ZM10.5 23.415C10.1022 23.415 9.72064 23.5731 9.43934 23.8544C9.15804 24.1357 9 24.5172 9 24.915C9 25.3129 9.15804 25.6944 9.43934 25.9757C9.72064 26.257 10.1022 26.415 10.5 26.415C10.8978 26.415 11.2794 26.257 11.5607 25.9757C11.842 25.6944 12 25.3129 12 24.915C12 24.5172 11.842 24.1357 11.5607 23.8544C11.2794 23.5731 10.8978 23.415 10.5 23.415ZM6 23.415C5.60218 23.415 5.22064 23.5731 4.93934 23.8544C4.65804 24.1357 4.5 24.5172 4.5 24.915C4.5 25.3129 4.65804 25.6944 4.93934 25.9757C5.22064 26.257 5.60218 26.415 6 26.415C6.39782 26.415 6.77936 26.257 7.06066 25.9757C7.34196 25.6944 7.5 25.3129 7.5 24.915C7.5 24.5172 7.34196 24.1357 7.06066 23.8544C6.77936 23.5731 6.39782 23.415 6 23.415ZM6 27.915C5.60218 27.915 5.22064 28.0731 4.93934 28.3544C4.65804 28.6357 4.5 29.0172 4.5 29.415C4.5 29.8129 4.65804 30.1944 4.93934 30.4757C5.22064 30.757 5.60218 30.915 6 30.915C6.39782 30.915 6.77936 30.757 7.06066 30.4757C7.34196 30.1944 7.5 29.8129 7.5 29.415C7.5 29.0172 7.34196 28.6357 7.06066 28.3544C6.77936 28.0731 6.39782 27.915 6 27.915ZM6 32.415C5.60218 32.415 5.22064 32.5731 4.93934 32.8544C4.65804 33.1357 4.5 33.5172 4.5 33.915C4.5 34.3129 4.65804 34.6944 4.93934 34.9757C5.22064 35.257 5.60218 35.415 6 35.415C6.39782 35.415 6.77936 35.257 7.06066 34.9757C7.34196 34.6944 7.5 34.3129 7.5 33.915C7.5 33.5172 7.34196 33.1357 7.06066 32.8544C6.77936 32.5731 6.39782 32.415 6 32.415Z" fill="black"/>
</g>
</g>
</g>
</g>
<defs>
<clipPath id="clip0_303_1315">
<rect width="48" height="49" fill="white"/>
</clipPath>
<clipPath id="clip1_303_1315">
<rect width="48" height="49" fill="white"/>
</clipPath>
<clipPath id="clip2_303_1315">
<rect width="48" height="49" fill="white"/>
</clipPath>
</defs>
</svg>
