<svg width="48" height="49" viewBox="0 0 48 49" fill="none" xmlns="http://www.w3.org/2000/svg">
<g clip-path="url(#clip0_308_5324)">
<g clip-path="url(#clip1_308_5324)">
<g clip-path="url(#clip2_308_5324)">
<path d="M28 42.75C27.6022 42.75 27.2206 42.9081 26.9393 43.1894C26.658 43.4707 26.5 43.8522 26.5 44.25C26.5 44.6479 26.658 45.0294 26.9393 45.3107C27.2206 45.592 27.6022 45.75 28 45.75C28.3978 45.75 28.7794 45.592 29.0607 45.3107C29.342 45.0294 29.5 44.6479 29.5 44.25C29.5 43.8522 29.342 43.4707 29.0607 43.1894C28.7794 42.9081 28.3978 42.75 28 42.75ZM23.5 42.75C23.1022 42.75 22.7206 42.9081 22.4393 43.1894C22.158 43.4707 22 43.8522 22 44.25C22 44.6479 22.158 45.0294 22.4393 45.3107C22.7206 45.592 23.1022 45.75 23.5 45.75C23.8978 45.75 24.2794 45.592 24.5607 45.3107C24.842 45.0294 25 44.6479 25 44.25C25 43.8522 24.842 43.4707 24.5607 43.1894C24.2794 42.9081 23.8978 42.75 23.5 42.75ZM28 38.25C27.6022 38.25 27.2206 38.4081 26.9393 38.6894C26.658 38.9707 26.5 39.3522 26.5 39.75C26.5 40.1479 26.658 40.5294 26.9393 40.8107C27.2206 41.092 27.6022 41.25 28 41.25C28.3978 41.25 28.7794 41.092 29.0607 40.8107C29.342 40.5294 29.5 40.1479 29.5 39.75C29.5 39.3522 29.342 38.9707 29.0607 38.6894C28.7794 38.4081 28.3978 38.25 28 38.25ZM23.5 38.25C23.1022 38.25 22.7206 38.4081 22.4393 38.6894C22.158 38.9707 22 39.3522 22 39.75C22 40.1479 22.158 40.5294 22.4393 40.8107C22.7206 41.092 23.1022 41.25 23.5 41.25C23.8978 41.25 24.2794 41.092 24.5607 40.8107C24.842 40.5294 25 40.1479 25 39.75C25 39.3522 24.842 38.9707 24.5607 38.6894C24.2794 38.4081 23.8978 38.25 23.5 38.25ZM28 33.75C27.6022 33.75 27.2206 33.9081 26.9393 34.1894C26.658 34.4707 26.5 34.8522 26.5 35.25C26.5 35.6479 26.658 36.0294 26.9393 36.3107C27.2206 36.592 27.6022 36.75 28 36.75C28.3978 36.75 28.7794 36.592 29.0607 36.3107C29.342 36.0294 29.5 35.6479 29.5 35.25C29.5 34.8522 29.342 34.4707 29.0607 34.1894C28.7794 33.9081 28.3978 33.75 28 33.75ZM23.5 33.75C23.1022 33.75 22.7206 33.9081 22.4393 34.1894C22.158 34.4707 22 34.8522 22 35.25C22 35.6479 22.158 36.0294 22.4393 36.3107C22.7206 36.592 23.1022 36.75 23.5 36.75C23.8978 36.75 24.2794 36.592 24.5607 36.3107C24.842 36.0294 25 35.6479 25 35.25C25 34.8522 24.842 34.4707 24.5607 34.1894C24.2794 33.9081 23.8978 33.75 23.5 33.75ZM28 29.25C27.6022 29.25 27.2206 29.4081 26.9393 29.6894C26.658 29.9707 26.5 30.3522 26.5 30.75C26.5 31.1479 26.658 31.5294 26.9393 31.8107C27.2206 32.092 27.6022 32.25 28 32.25C28.3978 32.25 28.7794 32.092 29.0607 31.8107C29.342 31.5294 29.5 31.1479 29.5 30.75C29.5 30.3522 29.342 29.9707 29.0607 29.6894C28.7794 29.4081 28.3978 29.25 28 29.25ZM23.5 29.25C23.1022 29.25 22.7206 29.4081 22.4393 29.6894C22.158 29.9707 22 30.3522 22 30.75C22 31.1479 22.158 31.5294 22.4393 31.8107C22.7206 32.092 23.1022 32.25 23.5 32.25C23.8978 32.25 24.2794 32.092 24.5607 31.8107C24.842 31.5294 25 31.1479 25 30.75C25 30.3522 24.842 29.9707 24.5607 29.6894C24.2794 29.4081 23.8978 29.25 23.5 29.25ZM28 24.75C27.6022 24.75 27.2206 24.9081 26.9393 25.1894C26.658 25.4707 26.5 25.8522 26.5 26.25C26.5 26.6479 26.658 27.0294 26.9393 27.3107C27.2206 27.592 27.6022 27.75 28 27.75C28.3978 27.75 28.7794 27.592 29.0607 27.3107C29.342 27.0294 29.5 26.6479 29.5 26.25C29.5 25.8522 29.342 25.4707 29.0607 25.1894C28.7794 24.9081 28.3978 24.75 28 24.75ZM28 11.25C27.6022 11.25 27.2206 11.4081 26.9393 11.6894C26.658 11.9707 26.5 12.3522 26.5 12.75C26.5 13.1479 26.658 13.5294 26.9393 13.8107C27.2206 14.092 27.6022 14.25 28 14.25C28.3978 14.25 28.7794 14.092 29.0607 13.8107C29.342 13.5294 29.5 13.1479 29.5 12.75C29.5 12.3522 29.342 11.9707 29.0607 11.6894C28.7794 11.4081 28.3978 11.25 28 11.25ZM28 15.75C27.6022 15.75 27.2206 15.9081 26.9393 16.1894C26.658 16.4707 26.5 16.8522 26.5 17.25C26.5 17.6479 26.658 18.0294 26.9393 18.3107C27.2206 18.592 27.6022 18.75 28 18.75C28.3978 18.75 28.7794 18.592 29.0607 18.3107C29.342 18.0294 29.5 17.6479 29.5 17.25C29.5 16.8522 29.342 16.4707 29.0607 16.1894C28.7794 15.9081 28.3978 15.75 28 15.75ZM28 6.75C27.6022 6.75 27.2206 6.90803 26.9393 7.18934C26.658 7.47064 26.5 7.85217 26.5 8.25C26.5 8.64782 26.658 9.02935 26.9393 9.31066C27.2206 9.59196 27.6022 9.75 28 9.75C28.3978 9.75 28.7794 9.59196 29.0607 9.31066C29.342 9.02935 29.5 8.64782 29.5 8.25C29.5 7.85217 29.342 7.47064 29.0607 7.18934C28.7794 6.90803 28.3978 6.75 28 6.75ZM23.5 24.75C23.1022 24.75 22.7206 24.9081 22.4393 25.1894C22.158 25.4707 22 25.8522 22 26.25C22 26.6479 22.158 27.0294 22.4393 27.3107C22.7206 27.592 23.1022 27.75 23.5 27.75C23.8978 27.75 24.2794 27.592 24.5607 27.3107C24.842 27.0294 25 26.6479 25 26.25C25 25.8522 24.842 25.4707 24.5607 25.1894C24.2794 24.9081 23.8978 24.75 23.5 24.75ZM19 42.75C18.6022 42.75 18.2206 42.9081 17.9393 43.1894C17.658 43.4707 17.5 43.8522 17.5 44.25C17.5 44.6479 17.658 45.0294 17.9393 45.3107C18.2206 45.592 18.6022 45.75 19 45.75C19.3978 45.75 19.7794 45.592 20.0607 45.3107C20.342 45.0294 20.5 44.6479 20.5 44.25C20.5 43.8522 20.342 43.4707 20.0607 43.1894C19.7794 42.9081 19.3978 42.75 19 42.75ZM19 38.25C18.6022 38.25 18.2206 38.4081 17.9393 38.6894C17.658 38.9707 17.5 39.3522 17.5 39.75C17.5 40.1479 17.658 40.5294 17.9393 40.8107C18.2206 41.092 18.6022 41.25 19 41.25C19.3978 41.25 19.7794 41.092 20.0607 40.8107C20.342 40.5294 20.5 40.1479 20.5 39.75C20.5 39.3522 20.342 38.9707 20.0607 38.6894C19.7794 38.4081 19.3978 38.25 19 38.25ZM19 33.75C18.6022 33.75 18.2206 33.9081 17.9393 34.1894C17.658 34.4707 17.5 34.8522 17.5 35.25C17.5 35.6479 17.658 36.0294 17.9393 36.3107C18.2206 36.592 18.6022 36.75 19 36.75C19.3978 36.75 19.7794 36.592 20.0607 36.3107C20.342 36.0294 20.5 35.6479 20.5 35.25C20.5 34.8522 20.342 34.4707 20.0607 34.1894C19.7794 33.9081 19.3978 33.75 19 33.75ZM19 29.25C18.6022 29.25 18.2206 29.4081 17.9393 29.6894C17.658 29.9707 17.5 30.3522 17.5 30.75C17.5 31.1479 17.658 31.5294 17.9393 31.8107C18.2206 32.092 18.6022 32.25 19 32.25C19.3978 32.25 19.7794 32.092 20.0607 31.8107C20.342 31.5294 20.5 31.1479 20.5 30.75C20.5 30.3522 20.342 29.9707 20.0607 29.6894C19.7794 29.4081 19.3978 29.25 19 29.25ZM19 24.75C18.6022 24.75 18.2206 24.9081 17.9393 25.1894C17.658 25.4707 17.5 25.8522 17.5 26.25C17.5 26.6479 17.658 27.0294 17.9393 27.3107C18.2206 27.592 18.6022 27.75 19 27.75C19.3978 27.75 19.7794 27.592 20.0607 27.3107C20.342 27.0294 20.5 26.6479 20.5 26.25C20.5 25.8522 20.342 25.4707 20.0607 25.1894C19.7794 24.9081 19.3978 24.75 19 24.75ZM28 2.25C27.6022 2.25 27.2206 2.40803 26.9393 2.68934C26.658 2.97064 26.5 3.35217 26.5 3.75C26.5 4.14782 26.658 4.52935 26.9393 4.81066C27.2206 5.09196 27.6022 5.25 28 5.25C28.3978 5.25 28.7794 5.09196 29.0607 4.81066C29.342 4.52935 29.5 4.14782 29.5 3.75C29.5 3.35217 29.342 2.97064 29.0607 2.68934C28.7794 2.40803 28.3978 2.25 28 2.25ZM23.5 6.75C23.1022 6.75 22.7206 6.90803 22.4393 7.18934C22.158 7.47064 22 7.85217 22 8.25C22 8.64782 22.158 9.02935 22.4393 9.31066C22.7206 9.59196 23.1022 9.75 23.5 9.75C23.8978 9.75 24.2794 9.59196 24.5607 9.31066C24.842 9.02935 25 8.64782 25 8.25C25 7.85217 24.842 7.47064 24.5607 7.18934C24.2794 6.90803 23.8978 6.75 23.5 6.75ZM19 11.25C18.6022 11.25 18.2206 11.4081 17.9393 11.6894C17.658 11.9707 17.5 12.3522 17.5 12.75C17.5 13.1479 17.658 13.5294 17.9393 13.8107C18.2206 14.092 18.6022 14.25 19 14.25C19.3978 14.25 19.7794 14.092 20.0607 13.8107C20.342 13.5294 20.5 13.1479 20.5 12.75C20.5 12.3522 20.342 11.9707 20.0607 11.6894C19.7794 11.4081 19.3978 11.25 19 11.25ZM14.5 15.75C14.1022 15.75 13.7206 15.9081 13.4393 16.1894C13.158 16.4707 13 16.8522 13 17.25C13 17.6479 13.158 18.0294 13.4393 18.3107C13.7206 18.592 14.1022 18.75 14.5 18.75C14.8978 18.75 15.2794 18.592 15.5607 18.3107C15.842 18.0294 16 17.6479 16 17.25C16 16.8522 15.842 16.4707 15.5607 16.1894C15.2794 15.9081 14.8978 15.75 14.5 15.75ZM10 20.25C9.6022 20.25 9.22064 20.4081 8.93934 20.6894C8.65804 20.9707 8.5 21.3522 8.5 21.75C8.5 22.1479 8.65804 22.5294 8.93934 22.8107C9.22064 23.092 9.6022 23.25 10 23.25C10.3978 23.25 10.7794 23.092 11.0607 22.8107C11.342 22.5294 11.5 22.1479 11.5 21.75C11.5 21.3522 11.342 20.9707 11.0607 20.6894C10.7794 20.4081 10.3978 20.25 10 20.25ZM5.5 24.75C5.10218 24.75 4.72064 24.9081 4.43934 25.1894C4.15804 25.4707 4 25.8522 4 26.25C4 26.6479 4.15804 27.0294 4.43934 27.3107C4.72064 27.592 5.10218 27.75 5.5 27.75C5.89782 27.75 6.27936 27.592 6.56066 27.3107C6.84196 27.0294 7 26.6479 7 26.25C7 25.8522 6.84196 25.4707 6.56066 25.1894C6.27936 24.9081 5.89782 24.75 5.5 24.75ZM23.5 2.25C23.1022 2.25 22.7206 2.40803 22.4393 2.68934C22.158 2.97064 22 3.35217 22 3.75C22 4.14782 22.158 4.52935 22.4393 4.81066C22.7206 5.09196 23.1022 5.25 23.5 5.25C23.8978 5.25 24.2794 5.09196 24.5607 4.81066C24.842 4.52935 25 4.14782 25 3.75C25 3.35217 24.842 2.97064 24.5607 2.68934C24.2794 2.40803 23.8978 2.25 23.5 2.25ZM19 2.25C18.6022 2.25 18.2206 2.40803 17.9393 2.68934C17.658 2.97064 17.5 3.35217 17.5 3.75C17.5 4.14782 17.658 4.52935 17.9393 4.81066C18.2206 5.09196 18.6022 5.25 19 5.25C19.3978 5.25 19.7794 5.09196 20.0607 4.81066C20.342 4.52935 20.5 4.14782 20.5 3.75C20.5 3.35217 20.342 2.97064 20.0607 2.68934C19.7794 2.40803 19.3978 2.25 19 2.25ZM14.5 2.25C14.1022 2.25 13.7206 2.40803 13.4393 2.68934C13.158 2.97064 13 3.35217 13 3.75C13 4.14782 13.158 4.52935 13.4393 4.81066C13.7206 5.09196 14.1022 5.25 14.5 5.25C14.8978 5.25 15.2794 5.09196 15.5607 4.81066C15.842 4.52935 16 4.14782 16 3.75C16 3.35217 15.842 2.97064 15.5607 2.68934C15.2794 2.40803 14.8978 2.25 14.5 2.25ZM46 42.75C45.6022 42.75 45.2206 42.9081 44.9393 43.1894C44.658 43.4707 44.5 43.8522 44.5 44.25C44.5 44.6479 44.658 45.0294 44.9393 45.3107C45.2206 45.592 45.6022 45.75 46 45.75C46.3978 45.75 46.7794 45.592 47.0607 45.3107C47.342 45.0294 47.5 44.6479 47.5 44.25C47.5 43.8522 47.342 43.4707 47.0607 43.1894C46.7794 42.9081 46.3978 42.75 46 42.75ZM41.5 42.75C41.1022 42.75 40.7206 42.9081 40.4393 43.1894C40.158 43.4707 40 43.8522 40 44.25C40 44.6479 40.158 45.0294 40.4393 45.3107C40.7206 45.592 41.1022 45.75 41.5 45.75C41.8978 45.75 42.2794 45.592 42.5607 45.3107C42.842 45.0294 43 44.6479 43 44.25C43 43.8522 42.842 43.4707 42.5607 43.1894C42.2794 42.9081 41.8978 42.75 41.5 42.75ZM46 38.25C45.6022 38.25 45.2206 38.4081 44.9393 38.6894C44.658 38.9707 44.5 39.3522 44.5 39.75C44.5 40.1479 44.658 40.5294 44.9393 40.8107C45.2206 41.092 45.6022 41.25 46 41.25C46.3978 41.25 46.7794 41.092 47.0607 40.8107C47.342 40.5294 47.5 40.1479 47.5 39.75C47.5 39.3522 47.342 38.9707 47.0607 38.6894C46.7794 38.4081 46.3978 38.25 46 38.25ZM41.5 38.25C41.1022 38.25 40.7206 38.4081 40.4393 38.6894C40.158 38.9707 40 39.3522 40 39.75C40 40.1479 40.158 40.5294 40.4393 40.8107C40.7206 41.092 41.1022 41.25 41.5 41.25C41.8978 41.25 42.2794 41.092 42.5607 40.8107C42.842 40.5294 43 40.1479 43 39.75C43 39.3522 42.842 38.9707 42.5607 38.6894C42.2794 38.4081 41.8978 38.25 41.5 38.25ZM46 33.75C45.6022 33.75 45.2206 33.9081 44.9393 34.1894C44.658 34.4707 44.5 34.8522 44.5 35.25C44.5 35.6479 44.658 36.0294 44.9393 36.3107C45.2206 36.592 45.6022 36.75 46 36.75C46.3978 36.75 46.7794 36.592 47.0607 36.3107C47.342 36.0294 47.5 35.6479 47.5 35.25C47.5 34.8522 47.342 34.4707 47.0607 34.1894C46.7794 33.9081 46.3978 33.75 46 33.75ZM41.5 33.75C41.1022 33.75 40.7206 33.9081 40.4393 34.1894C40.158 34.4707 40 34.8522 40 35.25C40 35.6479 40.158 36.0294 40.4393 36.3107C40.7206 36.592 41.1022 36.75 41.5 36.75C41.8978 36.75 42.2794 36.592 42.5607 36.3107C42.842 36.0294 43 35.6479 43 35.25C43 34.8522 42.842 34.4707 42.5607 34.1894C42.2794 33.9081 41.8978 33.75 41.5 33.75ZM46 29.25C45.6022 29.25 45.2206 29.4081 44.9393 29.6894C44.658 29.9707 44.5 30.3522 44.5 30.75C44.5 31.1479 44.658 31.5294 44.9393 31.8107C45.2206 32.092 45.6022 32.25 46 32.25C46.3978 32.25 46.7794 32.092 47.0607 31.8107C47.342 31.5294 47.5 31.1479 47.5 30.75C47.5 30.3522 47.342 29.9707 47.0607 29.6894C46.7794 29.4081 46.3978 29.25 46 29.25ZM41.5 29.25C41.1022 29.25 40.7206 29.4081 40.4393 29.6894C40.158 29.9707 40 30.3522 40 30.75C40 31.1479 40.158 31.5294 40.4393 31.8107C40.7206 32.092 41.1022 32.25 41.5 32.25C41.8978 32.25 42.2794 32.092 42.5607 31.8107C42.842 31.5294 43 31.1479 43 30.75C43 30.3522 42.842 29.9707 42.5607 29.6894C42.2794 29.4081 41.8978 29.25 41.5 29.25ZM46 24.75C45.6022 24.75 45.2206 24.9081 44.9393 25.1894C44.658 25.4707 44.5 25.8522 44.5 26.25C44.5 26.6479 44.658 27.0294 44.9393 27.3107C45.2206 27.592 45.6022 27.75 46 27.75C46.3978 27.75 46.7794 27.592 47.0607 27.3107C47.342 27.0294 47.5 26.6479 47.5 26.25C47.5 25.8522 47.342 25.4707 47.0607 25.1894C46.7794 24.9081 46.3978 24.75 46 24.75ZM41.5 24.75C41.1022 24.75 40.7206 24.9081 40.4393 25.1894C40.158 25.4707 40 25.8522 40 26.25C40 26.6479 40.158 27.0294 40.4393 27.3107C40.7206 27.592 41.1022 27.75 41.5 27.75C41.8978 27.75 42.2794 27.592 42.5607 27.3107C42.842 27.0294 43 26.6479 43 26.25C43 25.8522 42.842 25.4707 42.5607 25.1894C42.2794 24.9081 41.8978 24.75 41.5 24.75ZM46 20.25C45.6022 20.25 45.2206 20.4081 44.9393 20.6894C44.658 20.9707 44.5 21.3522 44.5 21.75C44.5 22.1479 44.658 22.5294 44.9393 22.8107C45.2206 23.092 45.6022 23.25 46 23.25C46.3978 23.25 46.7794 23.092 47.0607 22.8107C47.342 22.5294 47.5 22.1479 47.5 21.75C47.5 21.3522 47.342 20.9707 47.0607 20.6894C46.7794 20.4081 46.3978 20.25 46 20.25ZM41.5 20.25C41.1022 20.25 40.7206 20.4081 40.4393 20.6894C40.158 20.9707 40 21.3522 40 21.75C40 22.1479 40.158 22.5294 40.4393 22.8107C40.7206 23.092 41.1022 23.25 41.5 23.25C41.8978 23.25 42.2794 23.092 42.5607 22.8107C42.842 22.5294 43 22.1479 43 21.75C43 21.3522 42.842 20.9707 42.5607 20.6894C42.2794 20.4081 41.8978 20.25 41.5 20.25ZM37 42.75C36.6022 42.75 36.2206 42.9081 35.9393 43.1894C35.658 43.4707 35.5 43.8522 35.5 44.25C35.5 44.6479 35.658 45.0294 35.9393 45.3107C36.2206 45.592 36.6022 45.75 37 45.75C37.3978 45.75 37.7794 45.592 38.0607 45.3107C38.342 45.0294 38.5 44.6479 38.5 44.25C38.5 43.8522 38.342 43.4707 38.0607 43.1894C37.7794 42.9081 37.3978 42.75 37 42.75ZM37 38.25C36.6022 38.25 36.2206 38.4081 35.9393 38.6894C35.658 38.9707 35.5 39.3522 35.5 39.75C35.5 40.1479 35.658 40.5294 35.9393 40.8107C36.2206 41.092 36.6022 41.25 37 41.25C37.3978 41.25 37.7794 41.092 38.0607 40.8107C38.342 40.5294 38.5 40.1479 38.5 39.75C38.5 39.3522 38.342 38.9707 38.0607 38.6894C37.7794 38.4081 37.3978 38.25 37 38.25ZM37 33.75C36.6022 33.75 36.2206 33.9081 35.9393 34.1894C35.658 34.4707 35.5 34.8522 35.5 35.25C35.5 35.6479 35.658 36.0294 35.9393 36.3107C36.2206 36.592 36.6022 36.75 37 36.75C37.3978 36.75 37.7794 36.592 38.0607 36.3107C38.342 36.0294 38.5 35.6479 38.5 35.25C38.5 34.8522 38.342 34.4707 38.0607 34.1894C37.7794 33.9081 37.3978 33.75 37 33.75ZM37 29.25C36.6022 29.25 36.2206 29.4081 35.9393 29.6894C35.658 29.9707 35.5 30.3522 35.5 30.75C35.5 31.1479 35.658 31.5294 35.9393 31.8107C36.2206 32.092 36.6022 32.25 37 32.25C37.3978 32.25 37.7794 32.092 38.0607 31.8107C38.342 31.5294 38.5 31.1479 38.5 30.75C38.5 30.3522 38.342 29.9707 38.0607 29.6894C37.7794 29.4081 37.3978 29.25 37 29.25ZM37 24.75C36.6022 24.75 36.2206 24.9081 35.9393 25.1894C35.658 25.4707 35.5 25.8522 35.5 26.25C35.5 26.6479 35.658 27.0294 35.9393 27.3107C36.2206 27.592 36.6022 27.75 37 27.75C37.3978 27.75 37.7794 27.592 38.0607 27.3107C38.342 27.0294 38.5 26.6479 38.5 26.25C38.5 25.8522 38.342 25.4707 38.0607 25.1894C37.7794 24.9081 37.3978 24.75 37 24.75ZM37 20.25C36.6022 20.25 36.2206 20.4081 35.9393 20.6894C35.658 20.9707 35.5 21.3522 35.5 21.75C35.5 22.1479 35.658 22.5294 35.9393 22.8107C36.2206 23.092 36.6022 23.25 37 23.25C37.3978 23.25 37.7794 23.092 38.0607 22.8107C38.342 22.5294 38.5 22.1479 38.5 21.75C38.5 21.3522 38.342 20.9707 38.0607 20.6894C37.7794 20.4081 37.3978 20.25 37 20.25ZM10 42.75C9.6022 42.75 9.22064 42.9081 8.93934 43.1894C8.65804 43.4707 8.5 43.8522 8.5 44.25C8.5 44.6479 8.65804 45.0294 8.93934 45.3107C9.22064 45.592 9.6022 45.75 10 45.75C10.3978 45.75 10.7794 45.592 11.0607 45.3107C11.342 45.0294 11.5 44.6479 11.5 44.25C11.5 43.8522 11.342 43.4707 11.0607 43.1894C10.7794 42.9081 10.3978 42.75 10 42.75ZM5.5 42.75C5.10218 42.75 4.72064 42.9081 4.43934 43.1894C4.15804 43.4707 4 43.8522 4 44.25C4 44.6479 4.15804 45.0294 4.43934 45.3107C4.72064 45.592 5.10218 45.75 5.5 45.75C5.89782 45.75 6.27936 45.592 6.56066 45.3107C6.84196 45.0294 7 44.6479 7 44.25C7 43.8522 6.84196 43.4707 6.56066 43.1894C6.27936 42.9081 5.89782 42.75 5.5 42.75ZM10 38.25C9.6022 38.25 9.22064 38.4081 8.93934 38.6894C8.65804 38.9707 8.5 39.3522 8.5 39.75C8.5 40.1479 8.65804 40.5294 8.93934 40.8107C9.22064 41.092 9.6022 41.25 10 41.25C10.3978 41.25 10.7794 41.092 11.0607 40.8107C11.342 40.5294 11.5 40.1479 11.5 39.75C11.5 39.3522 11.342 38.9707 11.0607 38.6894C10.7794 38.4081 10.3978 38.25 10 38.25ZM5.5 38.25C5.10218 38.25 4.72064 38.4081 4.43934 38.6894C4.15804 38.9707 4 39.3522 4 39.75C4 40.1479 4.15804 40.5294 4.43934 40.8107C4.72064 41.092 5.10218 41.25 5.5 41.25C5.89782 41.25 6.27936 41.092 6.56066 40.8107C6.84196 40.5294 7 40.1479 7 39.75C7 39.3522 6.84196 38.9707 6.56066 38.6894C6.27936 38.4081 5.89782 38.25 5.5 38.25ZM10 33.75C9.6022 33.75 9.22064 33.9081 8.93934 34.1894C8.65804 34.4707 8.5 34.8522 8.5 35.25C8.5 35.6479 8.65804 36.0294 8.93934 36.3107C9.22064 36.592 9.6022 36.75 10 36.75C10.3978 36.75 10.7794 36.592 11.0607 36.3107C11.342 36.0294 11.5 35.6479 11.5 35.25C11.5 34.8522 11.342 34.4707 11.0607 34.1894C10.7794 33.9081 10.3978 33.75 10 33.75ZM5.5 33.75C5.10218 33.75 4.72064 33.9081 4.43934 34.1894C4.15804 34.4707 4 34.8522 4 35.25C4 35.6479 4.15804 36.0294 4.43934 36.3107C4.72064 36.592 5.10218 36.75 5.5 36.75C5.89782 36.75 6.27936 36.592 6.56066 36.3107C6.84196 36.0294 7 35.6479 7 35.25C7 34.8522 6.84196 34.4707 6.56066 34.1894C6.27936 33.9081 5.89782 33.75 5.5 33.75ZM46 15.75C45.6022 15.75 45.2206 15.9081 44.9393 16.1894C44.658 16.4707 44.5 16.8522 44.5 17.25C44.5 17.6479 44.658 18.0294 44.9393 18.3107C45.2206 18.592 45.6022 18.75 46 18.75C46.3978 18.75 46.7794 18.592 47.0607 18.3107C47.342 18.0294 47.5 17.6479 47.5 17.25C47.5 16.8522 47.342 16.4707 47.0607 16.1894C46.7794 15.9081 46.3978 15.75 46 15.75ZM41.5 15.75C41.1022 15.75 40.7206 15.9081 40.4393 16.1894C40.158 16.4707 40 16.8522 40 17.25C40 17.6479 40.158 18.0294 40.4393 18.3107C40.7206 18.592 41.1022 18.75 41.5 18.75C41.8978 18.75 42.2794 18.592 42.5607 18.3107C42.842 18.0294 43 17.6479 43 17.25C43 16.8522 42.842 16.4707 42.5607 16.1894C42.2794 15.9081 41.8978 15.75 41.5 15.75ZM1 42.75C0.60218 42.75 0.220644 42.9081 -0.06066 43.1894C-0.341965 43.4707 -0.5 43.8522 -0.5 44.25C-0.5 44.6479 -0.341965 45.0294 -0.06066 45.3107C0.220644 45.592 0.60218 45.75 1 45.75C1.39782 45.75 1.77936 45.592 2.06066 45.3107C2.34196 45.0294 2.5 44.6479 2.5 44.25C2.5 43.8522 2.34196 43.4707 2.06066 43.1894C1.77936 42.9081 1.39782 42.75 1 42.75ZM1 38.25C0.60218 38.25 0.220644 38.4081 -0.06066 38.6894C-0.341965 38.9707 -0.5 39.3522 -0.5 39.75C-0.5 40.1479 -0.341965 40.5294 -0.06066 40.8107C0.220644 41.092 0.60218 41.25 1 41.25C1.39782 41.25 1.77936 41.092 2.06066 40.8107C2.34196 40.5294 2.5 40.1479 2.5 39.75C2.5 39.3522 2.34196 38.9707 2.06066 38.6894C1.77936 38.4081 1.39782 38.25 1 38.25ZM1 33.75C0.60218 33.75 0.220644 33.9081 -0.06066 34.1894C-0.341965 34.4707 -0.5 34.8522 -0.5 35.25C-0.5 35.6479 -0.341965 36.0294 -0.06066 36.3107C0.220644 36.592 0.60218 36.75 1 36.75C1.39782 36.75 1.77936 36.592 2.06066 36.3107C2.34196 36.0294 2.5 35.6479 2.5 35.25C2.5 34.8522 2.34196 34.4707 2.06066 34.1894C1.77936 33.9081 1.39782 33.75 1 33.75ZM37 15.75C36.6022 15.75 36.2206 15.9081 35.9393 16.1894C35.658 16.4707 35.5 16.8522 35.5 17.25C35.5 17.6479 35.658 18.0294 35.9393 18.3107C36.2206 18.592 36.6022 18.75 37 18.75C37.3978 18.75 37.7794 18.592 38.0607 18.3107C38.342 18.0294 38.5 17.6479 38.5 17.25C38.5 16.8522 38.342 16.4707 38.0607 16.1894C37.7794 15.9081 37.3978 15.75 37 15.75Z" fill="black"/>
</g>
</g>
</g>
<defs>
<clipPath id="clip0_308_5324">
<rect width="48" height="49" fill="white"/>
</clipPath>
<clipPath id="clip1_308_5324">
<rect width="48" height="49" fill="white"/>
</clipPath>
<clipPath id="clip2_308_5324">
<rect width="48" height="49" fill="white"/>
</clipPath>
</defs>
</svg>
