<svg width="192" height="178" viewBox="0 0 192 178" fill="none" xmlns="http://www.w3.org/2000/svg">
<path d="M189.784 145.816C190.786 144.312 191.458 142.613 191.756 140.831C192.053 139.048 191.97 137.223 191.512 135.475C190.848 132.952 189.476 130.854 187.615 129.347C188.512 127.873 189.1 126.233 189.344 124.525C189.881 120.811 188.648 117.103 185.874 114.079C183.716 111.726 180.662 110.431 177.282 110.431C176.889 110.431 176.489 110.452 176.081 110.492C178.643 102.304 179.942 93.774 179.933 85.195C179.933 38.5231 142.097 0.685089 95.424 0.685089C48.75 0.685089 10.9099 38.5191 10.9099 85.195C10.9015 93.752 12.1936 102.261 14.742 110.43H14.6519C11.2719 110.43 8.219 111.724 6.06 114.077C3.287 117.098 2.0529 120.81 2.5899 124.523C2.8346 126.231 3.4231 127.872 4.3199 129.346C2.4579 130.852 1.086 132.95 0.422004 135.473C-0.0357962 137.222 -0.118296 139.047 0.179904 140.83C0.478104 142.612 1.1501 144.312 2.1519 145.816C1.9739 146.094 1.8099 146.381 1.6549 146.676C-0.0150974 149.847 -0.122996 153.43 1.352 156.767C3.588 161.824 9.14191 165.808 19.9289 170.085C26.6359 172.745 32.779 174.446 32.833 174.461C41.705 176.762 49.729 177.931 56.675 177.931C68.081 177.931 76.591 174.811 82.026 168.647C91.222 170.106 100.594 170.052 109.773 168.489C115.201 174.757 123.76 177.931 135.262 177.931C142.208 177.931 150.232 176.762 159.103 174.461C159.158 174.446 165.298 172.745 172.008 170.085C182.795 165.808 188.35 161.824 190.585 156.767C192.059 153.43 191.952 149.847 190.281 146.676C190.129 146.379 189.961 146.091 189.784 145.816ZM78.137 158.997C77.669 159.815 77.168 160.614 76.635 161.391C75.23 163.448 73.382 165.02 71.237 166.188C67.1369 168.424 61.947 169.205 56.675 169.205C48.346 169.205 39.808 167.256 35.023 166.015C34.787 165.954 5.689 157.735 9.373 150.739C9.993 149.562 11.0129 149.092 12.2979 149.092C17.4849 149.092 26.9299 156.816 30.9889 156.816C31.8959 156.816 32.5359 156.43 32.7969 155.488C34.5269 149.284 6.5039 146.676 8.8639 137.692C9.2799 136.102 10.41 135.456 11.998 135.456C18.856 135.455 34.248 147.516 37.467 147.516C37.714 147.516 37.8909 147.443 37.9869 147.291C38.0009 147.268 38.015 147.246 38.028 147.222C39.539 144.727 38.6719 142.913 28.3209 136.573L27.3269 135.968C15.9359 129.074 7.9409 124.925 12.4879 119.975C13.0109 119.404 13.7529 119.151 14.6539 119.151C15.7219 119.151 17.0149 119.508 18.4389 120.108C24.4549 122.645 32.793 129.564 36.276 132.581C36.8239 133.057 37.3683 133.538 37.9089 134.022C37.9089 134.022 42.319 138.608 44.985 138.608C45.599 138.608 46.1199 138.366 46.4729 137.768C48.364 134.58 28.9099 119.838 27.8129 113.755C27.0689 109.634 28.3349 107.546 30.6749 107.546C31.7879 107.546 33.1459 108.02 34.6449 108.971C39.2949 111.922 48.2729 127.35 51.5599 133.352C52.6619 135.363 54.5429 136.213 56.2379 136.213C59.6009 136.213 62.2299 132.87 56.5459 128.622C48.0029 122.23 51.001 111.782 55.078 111.139C55.252 111.111 55.4279 111.097 55.6029 111.097C59.3109 111.097 60.9459 117.486 60.9459 117.486C60.9459 117.486 65.7399 129.524 73.975 137.753C81.447 145.222 82.491 151.351 78.137 158.997ZM104.766 160.407L104.339 160.458L103.611 160.541C103.228 160.581 102.844 160.619 102.459 160.654L102.084 160.688L101.741 160.717L101.255 160.756L100.718 160.795L100.182 160.83L100.063 160.838C99.923 160.846 99.783 160.855 99.641 160.862L99.462 160.872C99.296 160.881 99.13 160.889 98.962 160.896L98.381 160.921L97.854 160.939L97.502 160.949H97.323C97.213 160.949 97.104 160.955 96.994 160.956H96.82C96.71 160.956 96.601 160.956 96.491 160.961L96.043 160.967H95.418C94.927 160.967 94.437 160.962 93.949 160.952L93.553 160.943C93.44 160.943 93.327 160.938 93.216 160.934L92.796 160.922L92.275 160.902L91.805 160.881L91.684 160.876L91.237 160.853C91.112 160.846 90.989 160.84 90.865 160.831L90.576 160.814C90.213 160.791 89.85 160.766 89.487 160.738L89.107 160.707C88.947 160.695 88.787 160.68 88.628 160.666C88.441 160.65 88.254 160.632 88.067 160.614C87.754 160.585 87.441 160.553 87.128 160.519H87.113C91.683 150.324 89.372 140.802 80.137 131.575C74.08 125.526 70.051 116.594 69.215 114.633C67.5229 108.828 63.045 102.375 55.608 102.375C54.979 102.375 54.351 102.425 53.73 102.523C50.472 103.036 47.624 104.911 45.592 107.733C43.396 105.002 41.262 102.831 39.332 101.605C36.422 99.76 33.5179 98.824 30.6889 98.824C27.1579 98.824 24.0019 100.274 21.8019 102.904L21.7459 102.971C21.7039 102.798 21.6639 102.625 21.6229 102.451L21.6179 102.428C21.1992 100.638 20.8477 98.833 20.5639 97.016C20.5639 97.004 20.5639 96.992 20.5579 96.98C20.5359 96.843 20.5159 96.705 20.4949 96.568C20.4334 96.162 20.3757 95.755 20.3219 95.348C20.2979 95.163 20.2719 94.978 20.2489 94.793L20.1809 94.238C20.1589 94.053 20.1409 93.885 20.1209 93.709L20.115 93.665C20.0351 92.945 19.9651 92.225 19.9049 91.503L19.8829 91.226L19.8479 90.754C19.8379 90.625 19.8279 90.495 19.8209 90.365C19.8209 90.334 19.8159 90.304 19.8149 90.275C19.7895 89.913 19.7678 89.55 19.7499 89.187C19.7399 88.998 19.7299 88.81 19.7219 88.62L19.7019 88.124L19.6969 87.974L19.6809 87.517L19.6709 87.128C19.6709 86.973 19.6629 86.818 19.6609 86.663C19.6579 86.508 19.6539 86.338 19.6529 86.174C19.6509 86.01 19.6529 85.848 19.6479 85.685C19.6439 85.521 19.6479 85.358 19.6479 85.195C19.6479 43.3421 53.5789 9.41109 95.436 9.41109C137.292 9.41109 171.222 43.3411 171.222 85.195V86.174C171.222 86.337 171.217 86.501 171.214 86.663C171.214 86.798 171.208 86.931 171.204 87.068C171.204 87.188 171.199 87.309 171.195 87.425C171.195 87.578 171.186 87.731 171.181 87.884V87.896L171.16 88.427C171.153 88.582 171.147 88.738 171.139 88.893L171.134 89.003L171.107 89.499C171.048 90.562 170.967 91.623 170.866 92.683V92.696C170.849 92.87 170.832 93.044 170.813 93.218L170.768 93.629L170.679 94.433L170.628 94.84L170.565 95.319C170.542 95.493 170.519 95.668 170.493 95.841C170.467 96.036 170.438 96.23 170.409 96.424L170.34 96.883L170.258 97.403C170.23 97.576 170.2 97.748 170.168 97.92C170.135 98.093 170.109 98.265 170.079 98.437C170.019 98.781 169.956 99.125 169.89 99.468C169.789 99.981 169.686 100.493 169.58 101.005L169.47 101.512C169.434 101.681 169.395 101.851 169.357 102.02C167.224 99.947 164.399 98.818 161.284 98.818C158.457 98.818 155.55 99.753 152.641 101.598C150.711 102.824 148.578 104.996 146.381 107.726C144.346 104.904 141.498 103.029 138.242 102.516C137.621 102.418 136.993 102.368 136.364 102.368C128.925 102.368 124.45 108.821 122.757 114.626C121.917 116.587 117.887 125.519 111.825 131.577C102.596 140.775 100.268 150.254 104.766 160.407ZM183.007 139.998L182.977 140.087C182.901 140.288 182.813 140.484 182.714 140.674C182.639 140.814 182.558 140.95 182.47 141.082C182.303 141.331 182.12 141.569 181.921 141.793C181.875 141.845 181.831 141.897 181.779 141.948C181.707 142.025 181.634 142.101 181.559 142.175C180.213 143.509 178.161 144.679 175.841 145.752C175.578 145.871 175.311 145.99 175.042 146.11L174.774 146.229C174.595 146.308 174.416 146.386 174.228 146.463C174.049 146.541 173.863 146.619 173.677 146.695L173.119 146.925C171.814 147.462 170.477 147.974 169.173 148.479L168.615 148.696L168.064 148.912C167.697 149.055 167.335 149.198 166.979 149.341L166.448 149.555L165.926 149.768L165.67 149.876C165.499 149.947 165.332 150.018 165.165 150.089C161.328 151.736 158.567 153.411 159.147 155.489C159.163 155.548 159.181 155.604 159.201 155.659C159.253 155.813 159.324 155.958 159.413 156.095C159.465 156.176 159.525 156.253 159.592 156.323C160.274 157.032 161.515 156.92 163.08 156.357C163.3 156.276 163.519 156.192 163.736 156.104L163.872 156.048C164.23 155.896 164.609 155.726 164.996 155.542C165.093 155.496 165.191 155.452 165.289 155.401C167.203 154.465 169.372 153.205 171.524 152.058C172.385 151.593 173.258 151.152 174.142 150.733C176.18 149.774 178.096 149.094 179.636 149.094C180.359 149.094 180.997 149.242 181.529 149.582L181.618 149.641C181.952 149.876 182.232 150.178 182.441 150.528C182.482 150.595 182.522 150.666 182.561 150.739C183.322 152.184 182.685 153.68 181.194 155.147C179.763 156.556 177.537 157.937 175.007 159.215C174.819 159.31 174.631 159.405 174.44 159.498C166.91 163.196 157.049 165.981 156.912 166.016C154.284 166.697 150.526 167.591 146.292 168.26L145.666 168.358L145.563 168.373C145.089 168.445 144.614 168.512 144.138 168.574C143.655 168.639 143.167 168.698 142.676 168.753L142.586 168.763C140.806 168.968 139.019 169.104 137.228 169.169H137.202C136.554 169.192 135.907 169.204 135.259 169.204H134.512C133.524 169.191 132.538 169.146 131.553 169.07C131.53 169.07 131.505 169.07 131.482 169.064C131.129 169.037 130.777 169.004 130.425 168.965C130.06 168.926 129.696 168.882 129.333 168.833C129.094 168.801 128.856 168.765 128.618 168.726C128.376 168.687 128.134 168.647 127.893 168.605L127.564 168.543L127.539 168.538C127.192 168.472 126.847 168.399 126.503 168.319C126.303 168.274 126.104 168.23 125.907 168.176L125.788 168.146C125.69 168.122 125.595 168.096 125.498 168.07L125.445 168.056L125.137 167.966C125.025 167.935 124.913 167.901 124.801 167.868L124.762 167.857L124.471 167.768C124.361 167.734 124.251 167.698 124.142 167.662L123.874 167.573L123.677 167.504C123.487 167.437 123.298 167.368 123.111 167.296L122.933 167.226L122.786 167.168C122.502 167.054 122.22 166.935 121.941 166.81L121.756 166.72L121.725 166.706C121.659 166.675 121.594 166.644 121.528 166.617C121.399 166.555 121.271 166.491 121.144 166.426L121.105 166.407L120.921 166.31C120.594 166.139 120.274 165.957 119.96 165.764L119.788 165.658C119.702 165.605 119.616 165.55 119.532 165.494L119.308 165.346L119.067 165.18L118.923 165.077C118.771 164.969 118.622 164.857 118.476 164.742L118.243 164.563C118.15 164.488 118.058 164.412 117.967 164.335C117.89 164.272 117.815 164.206 117.74 164.14L117.734 164.135C117.653 164.064 117.574 163.993 117.495 163.92C117.417 163.849 117.339 163.777 117.263 163.704L117.254 163.695C117.174 163.619 117.096 163.542 117.019 163.463C116.942 163.385 116.863 163.307 116.788 163.227C116.713 163.148 116.636 163.067 116.562 162.984C116.488 162.902 116.42 162.827 116.35 162.746L116.327 162.719C116.259 162.641 116.192 162.562 116.126 162.481C115.983 162.31 115.844 162.135 115.71 161.956C115.575 161.776 115.443 161.592 115.314 161.405L115.191 161.221C115.027 160.981 114.867 160.739 114.712 160.493C114.596 160.316 114.483 160.138 114.373 159.957C114.302 159.844 114.234 159.73 114.166 159.618L114.138 159.572C114.073 159.462 114.009 159.354 113.947 159.245C113.911 159.186 113.877 159.127 113.845 159.066C113.812 159.004 113.774 158.941 113.739 158.878L113.682 158.779L113.647 158.715C113.58 158.595 113.514 158.474 113.45 158.352C113.42 158.298 113.391 158.244 113.36 158.192L113.271 158.019L113.181 157.848C112.956 157.398 112.743 156.942 112.543 156.48L112.472 156.311C112.426 156.198 112.383 156.086 112.337 155.975C112.315 155.921 112.293 155.868 112.274 155.814C112.167 155.537 112.067 155.257 111.975 154.975C111.942 154.874 111.91 154.775 111.88 154.675C111.808 154.448 111.743 154.219 111.685 153.988C111.614 153.719 111.551 153.448 111.498 153.175C111.487 153.12 111.476 153.065 111.467 153.012C111.415 152.745 111.373 152.476 111.34 152.206C111.332 152.153 111.326 152.1 111.32 152.047L111.303 151.885C111.281 151.673 111.264 151.46 111.254 151.247C111.254 151.193 111.249 151.139 111.247 151.087C111.242 150.981 111.24 150.875 111.239 150.769C111.183 146.496 113.345 142.388 117.968 137.767C126.203 129.54 130.997 117.501 130.997 117.501C130.997 117.501 131.126 116.996 131.394 116.269C131.431 116.168 131.47 116.064 131.514 115.955C131.67 115.548 131.846 115.148 132.041 114.758L132.08 114.683C132.246 114.351 132.428 114.027 132.624 113.712C132.67 113.639 132.714 113.567 132.765 113.494C132.912 113.277 133.067 113.065 133.23 112.86C133.319 112.749 133.416 112.639 133.513 112.532C133.552 112.49 133.59 112.448 133.631 112.408C134.108 111.915 134.653 111.513 135.27 111.299L135.348 111.273C135.4 111.256 135.452 111.24 135.505 111.225C135.566 111.209 135.627 111.195 135.69 111.182L135.719 111.176C135.849 111.15 135.981 111.133 136.114 111.124H136.125C136.194 111.124 136.264 111.117 136.335 111.117C136.424 111.117 136.507 111.117 136.594 111.126C136.684 111.134 136.773 111.144 136.863 111.158C137.605 111.276 138.311 111.718 138.919 112.4C139.15 112.66 139.358 112.94 139.54 113.236C139.66 113.428 139.773 113.631 139.88 113.845C139.923 113.934 139.964 114.016 140.004 114.104C140.108 114.33 140.202 114.56 140.284 114.795C140.479 115.345 140.626 115.911 140.723 116.487C140.807 116.992 140.857 117.502 140.873 118.013C140.881 118.286 140.881 118.563 140.873 118.842C140.819 120.14 140.553 121.421 140.086 122.634C140.044 122.745 139.997 122.857 139.952 122.969C139.86 123.195 139.759 123.417 139.65 123.634C139.569 123.799 139.484 123.965 139.392 124.13C139.332 124.24 139.269 124.35 139.206 124.46C139.045 124.734 138.871 125.006 138.684 125.277L138.571 125.439C138.129 126.055 137.637 126.633 137.099 127.167C136.569 127.698 136.001 128.189 135.4 128.637C134.798 129.083 134.233 129.577 133.711 130.114C132.208 131.691 131.858 133.083 132.196 134.138C132.25 134.304 132.321 134.465 132.407 134.617C132.508 134.791 132.628 134.951 132.764 135.097L132.817 135.152L132.871 135.206C132.925 135.258 132.982 135.309 133.043 135.359L133.103 135.407C133.248 135.519 133.402 135.619 133.563 135.707C133.61 135.732 133.652 135.757 133.705 135.781C133.879 135.866 134.058 135.939 134.242 135.998C134.293 136.015 134.344 136.03 134.396 136.046L134.461 136.063L134.551 136.087L134.628 136.106L134.712 136.124L134.795 136.141L134.874 136.154C134.932 136.164 134.992 136.174 135.052 136.181L135.109 136.19L135.213 136.2L135.277 136.207L135.382 136.214H135.444L135.554 136.22H135.9L135.999 136.214L136.113 136.207L136.252 136.194L136.382 136.179C136.412 136.179 136.442 136.171 136.472 136.165C136.872 136.107 137.264 136.001 137.639 135.849L137.798 135.782C137.887 135.743 137.977 135.702 138.059 135.658C138.235 135.57 138.406 135.47 138.57 135.361C138.799 135.211 139.015 135.043 139.217 134.858C139.265 134.815 139.312 134.769 139.358 134.725C139.381 134.703 139.403 134.682 139.425 134.658C139.469 134.613 139.514 134.569 139.558 134.52C139.878 134.168 140.155 133.78 140.383 133.363C142.34 129.804 144.391 126.298 146.534 122.849L146.828 122.378L147.125 121.907C147.273 121.668 147.423 121.433 147.572 121.199L147.722 120.965C148.22 120.185 148.726 119.41 149.241 118.641L149.546 118.185C150.158 117.278 150.768 116.396 151.373 115.558L151.674 115.143C152.332 114.236 153.017 113.348 153.728 112.482L154.01 112.144C154.057 112.088 154.1 112.032 154.151 111.978C154.244 111.868 154.337 111.761 154.428 111.657C154.474 111.604 154.517 111.552 154.566 111.5L154.834 111.198L154.968 111.051C155.103 110.906 155.235 110.767 155.365 110.634C155.455 110.544 155.538 110.455 155.624 110.371C156.131 109.853 156.69 109.388 157.293 108.985L157.433 108.895C157.567 108.805 157.706 108.721 157.848 108.645C160.212 107.303 162.169 107.204 163.296 108.331C163.978 109.013 164.356 110.144 164.335 111.718C164.335 111.787 164.335 111.857 164.33 111.929V112.006C164.33 112.078 164.324 112.15 164.318 112.223C164.318 112.313 164.308 112.402 164.299 112.492C164.29 112.581 164.285 112.649 164.276 112.729C164.276 112.751 164.272 112.774 164.268 112.798C164.262 112.867 164.253 112.938 164.243 113.009C164.243 113.03 164.243 113.052 164.235 113.074C164.224 113.169 164.21 113.263 164.194 113.357C164.183 113.447 164.168 113.531 164.152 113.619L164.126 113.768C164.1 113.91 164.067 114.05 164.026 114.188C163.948 114.447 163.854 114.7 163.743 114.946C163.588 115.284 163.417 115.613 163.229 115.933C163.125 116.111 163.018 116.286 162.907 116.459C162.793 116.638 162.673 116.819 162.549 117.002C162.233 117.454 161.905 117.897 161.564 118.33L161.408 118.527C160.852 119.22 160.278 119.899 159.686 120.562L159.499 120.772C159.247 121.053 158.991 121.336 158.729 121.62L158.532 121.834C158.401 121.977 158.264 122.12 158.132 122.264C158.001 122.407 157.864 122.552 157.726 122.697L157.315 123.13L156.898 123.566L156.478 124.002C156.196 124.294 155.913 124.586 155.628 124.878C151.573 129.037 147.301 133.182 145.855 135.766C145.758 135.934 145.671 136.108 145.593 136.285C145.387 136.755 145.301 137.157 145.36 137.482C145.379 137.589 145.416 137.691 145.471 137.785C145.552 137.926 145.651 138.056 145.766 138.172C145.819 138.224 145.875 138.272 145.934 138.316C146.232 138.528 146.591 138.637 146.957 138.627H147.071L147.188 138.618L147.305 138.605L147.402 138.591C147.415 138.589 147.429 138.587 147.442 138.583L147.531 138.566L147.554 138.561L147.653 138.54L147.688 138.531C147.723 138.522 147.757 138.513 147.792 138.503C147.827 138.493 147.875 138.48 147.917 138.466C148.093 138.413 148.265 138.35 148.434 138.278C148.523 138.242 148.61 138.203 148.696 138.161C148.741 138.141 148.786 138.12 148.828 138.098L148.962 138.032C149.282 137.866 149.594 137.685 149.898 137.491L150.031 137.401C150.076 137.373 150.121 137.344 150.164 137.312L150.297 137.223L150.368 137.174L150.56 137.039C150.739 136.916 150.906 136.789 151.075 136.66L151.09 136.648L151.359 136.44C151.726 136.15 152.074 135.858 152.39 135.583L152.6 135.399L152.619 135.381L152.729 135.284C152.987 135.052 153.217 134.836 153.408 134.658L153.487 134.581C153.556 134.516 153.619 134.455 153.676 134.403L153.788 134.292L153.828 134.253L153.839 134.242L153.956 134.125L154.03 134.048L154.039 134.041L154.074 134.009L154.118 133.969L154.132 133.956L154.169 133.922L154.373 133.743L154.487 133.641C154.548 133.588 154.607 133.534 154.666 133.479L154.802 133.358C154.827 133.338 154.851 133.316 154.876 133.294L155.019 133.169L155.229 132.984L155.341 132.887C155.776 132.509 156.305 132.052 156.913 131.537L157.162 131.326L157.573 130.981L157.994 130.63C158.544 130.173 159.136 129.688 159.762 129.185L160.173 128.855C160.523 128.576 160.882 128.292 161.246 128.006C161.393 127.891 161.542 127.776 161.694 127.662C162.066 127.373 162.44 127.086 162.817 126.803C163.675 126.155 164.56 125.506 165.456 124.874L165.84 124.606C166.109 124.421 166.377 124.235 166.645 124.054L166.888 123.89C167.367 123.565 167.853 123.248 168.343 122.939L168.586 122.786L168.827 122.636C169.069 122.486 169.309 122.339 169.548 122.196L169.787 122.053L170.265 121.775L170.734 121.506L170.829 121.454L171.2 121.25C171.355 121.166 171.509 121.085 171.663 121.006L171.892 120.888L172.115 120.776C172.193 120.739 172.27 120.7 172.346 120.663C172.848 120.415 173.36 120.187 173.88 119.979C174.021 119.919 174.161 119.865 174.3 119.818L174.71 119.674C174.833 119.633 174.953 119.594 175.068 119.559L175.108 119.547C175.17 119.527 175.232 119.509 175.293 119.493L175.311 119.488C175.439 119.451 175.566 119.419 175.691 119.389H175.7C176.054 119.304 176.414 119.243 176.777 119.206C176.944 119.189 177.111 119.18 177.279 119.181H177.363C177.475 119.181 177.583 119.188 177.69 119.199C177.739 119.199 177.788 119.209 177.836 119.215H177.856C177.904 119.221 177.952 119.228 178 119.239C178.047 119.248 178.095 119.256 178.141 119.267H178.156C178.203 119.277 178.245 119.289 178.294 119.303C178.548 119.374 178.79 119.484 179.012 119.628C179.121 119.699 179.223 119.779 179.317 119.868L179.344 119.894C179.362 119.91 179.379 119.927 179.395 119.944L179.444 119.997C179.846 120.418 180.178 120.901 180.428 121.427L180.466 121.517C180.551 121.717 180.618 121.924 180.666 122.135C180.808 122.781 180.753 123.455 180.508 124.07C180.415 124.318 180.302 124.557 180.169 124.785C179.858 125.309 179.489 125.796 179.07 126.237L178.981 126.332C178.848 126.472 178.71 126.612 178.565 126.752C178.501 126.815 178.434 126.877 178.367 126.94L178.162 127.129L178.055 127.224C177.797 127.454 177.532 127.677 177.263 127.893C177.1 128.025 176.936 128.154 176.77 128.281C176.184 128.729 175.587 129.161 174.979 129.578C174.612 129.83 174.242 130.077 173.869 130.321C172.95 130.924 172.021 131.512 171.083 132.084C169.115 133.294 166.934 134.588 164.609 135.995L164.007 136.36C163.348 136.762 162.726 137.146 162.14 137.512L161.845 137.697L161.287 138.055C160.917 138.292 160.548 138.531 160.179 138.77L159.882 138.966C159.737 139.06 159.593 139.156 159.449 139.252L159.308 139.342L158.876 139.633L158.647 139.79L158.379 139.976L158.13 140.149C157.713 140.444 157.325 140.725 156.968 140.992L156.834 141.094C156.624 141.253 156.416 141.415 156.211 141.58C155.902 141.829 155.62 142.067 155.367 142.296L155.243 142.409C155.172 142.474 155.102 142.539 155.035 142.603C154.989 142.648 154.946 142.693 154.898 142.736L154.834 142.8C154.691 142.944 154.551 143.091 154.416 143.242L154.35 143.318C154.203 143.488 154.075 143.651 153.963 143.81L153.913 143.881C153.825 144.009 153.744 144.141 153.671 144.277C153.652 144.311 153.635 144.345 153.618 144.379L153.569 144.481L153.536 144.555L153.515 144.605L153.498 144.65L153.475 144.711C153.413 144.88 153.37 145.056 153.345 145.234L153.337 145.296L153.331 145.354V145.669C153.331 145.695 153.331 145.721 153.338 145.749L153.343 145.797C153.343 145.823 153.349 145.848 153.353 145.876C153.357 145.902 153.364 145.949 153.372 145.986V145.991C153.379 146.026 153.386 146.06 153.395 146.095C153.404 146.13 153.413 146.17 153.424 146.206C153.443 146.277 153.467 146.347 153.492 146.417C153.508 146.459 153.523 146.5 153.54 146.541C153.54 146.549 153.546 146.558 153.55 146.566L153.586 146.647L153.636 146.758C153.69 146.873 153.749 146.985 153.813 147.094L153.879 147.208L153.947 147.322C153.959 147.341 153.973 147.359 153.988 147.376L154.01 147.399L154.035 147.422L154.061 147.442C154.099 147.469 154.14 147.49 154.183 147.505C154.206 147.513 154.23 147.519 154.254 147.525C154.831 147.655 156.017 147.178 157.593 146.346C157.682 146.298 157.78 146.248 157.875 146.196L158.355 145.934L158.589 145.804C158.756 145.715 158.926 145.614 159.1 145.515L159.417 145.336C161.5 144.137 163.988 142.597 166.56 141.093C166.801 140.952 167.043 140.811 167.285 140.672L167.771 140.361C168.335 140.038 168.902 139.719 169.471 139.404C170.188 139.01 170.91 138.626 171.639 138.254L172.115 138.013C172.431 137.857 172.744 137.705 173.053 137.557C173.651 137.273 174.256 137.003 174.868 136.748L175.203 136.612L175.243 136.596C177.018 135.893 178.627 135.459 179.929 135.459C180.21 135.456 180.492 135.48 180.769 135.528H180.778C180.867 135.544 180.948 135.562 181.031 135.582H181.046C181.259 135.636 181.466 135.713 181.662 135.812C181.937 135.954 182.184 136.143 182.393 136.371C182.489 136.477 182.574 136.592 182.649 136.714C182.789 136.929 182.899 137.162 182.978 137.406C183.01 137.501 183.038 137.594 183.067 137.693C183.278 138.45 183.257 139.253 183.007 139.998Z" fill="#FF9D00"/>
<path fill-rule="evenodd" clip-rule="evenodd" d="M171.21 85.685V85.194C171.21 43.34 137.292 9.41101 95.4348 9.41101C53.5789 9.41101 19.6478 43.342 19.6478 85.194V85.358C19.6458 85.467 19.6448 85.576 19.6478 85.685C19.6527 85.848 19.6544 86.011 19.6528 86.174L19.6579 86.534L19.6608 86.663C19.6608 86.723 19.6629 86.782 19.6649 86.842C19.6679 86.937 19.6698 87.033 19.6698 87.128L19.6808 87.517L19.6968 87.974L19.7018 88.124L19.7218 88.597V88.62C19.7298 88.805 19.7399 88.989 19.7489 89.173L19.7498 89.187C19.7598 89.375 19.7699 89.564 19.7819 89.753C19.7919 89.927 19.8018 90.101 19.8148 90.275L19.8169 90.306C19.8256 90.455 19.8356 90.605 19.8468 90.754L19.8498 90.794L19.8828 91.226L19.8859 91.254C19.8919 91.338 19.8978 91.422 19.9058 91.503C19.9656 92.224 20.0353 92.945 20.1149 93.664L20.1198 93.709L20.1808 94.238L20.2489 94.793L20.2988 95.17L20.3218 95.347C20.3751 95.755 20.4328 96.162 20.4948 96.568L20.4989 96.595L20.5578 96.979C20.8433 98.808 21.1969 100.626 21.6178 102.429L21.6229 102.451L21.6548 102.586L21.7458 102.971L21.8018 102.904C24.0018 100.274 27.1578 98.824 30.6888 98.824C33.5188 98.824 36.4219 99.76 39.3319 101.605C41.2619 102.831 43.3959 105.002 45.5919 107.733C47.6239 104.911 50.4719 103.035 53.7299 102.523C54.3511 102.425 54.979 102.376 55.6079 102.375C63.0439 102.375 67.5228 108.828 69.2148 114.633C70.0508 116.594 74.0798 125.526 80.1558 131.568C89.3918 140.795 91.7028 150.316 87.1318 160.511H87.1478C87.4588 160.546 87.7718 160.578 88.0868 160.607C88.2738 160.625 88.4598 160.643 88.6478 160.659L88.7138 160.665L89.1268 160.7L89.5068 160.73C89.8688 160.758 90.2318 160.784 90.5958 160.807L90.8848 160.824L91.1138 160.838L91.2558 160.846L91.7028 160.869L91.8248 160.874L92.2938 160.895L92.8158 160.915L93.2348 160.927L93.3048 160.929C93.3938 160.933 93.4828 160.936 93.5718 160.936L93.6678 160.939C94.2578 160.953 94.8468 160.96 95.4368 160.959H96.0628L96.5098 160.954C96.6198 160.949 96.7288 160.949 96.8398 160.949H97.0138L97.1648 160.945C97.2238 160.943 97.2828 160.941 97.3428 160.941H97.5218L97.8728 160.932L98.4008 160.914L98.9818 160.888C99.1498 160.882 99.3158 160.873 99.4818 160.865L99.6608 160.854L99.9268 160.84L100.083 160.831L100.201 160.823L100.738 160.788L101.274 160.749L101.761 160.71L102.103 160.681L102.479 160.647C103.107 160.591 103.733 160.525 104.359 160.45L104.786 160.399C100.287 150.247 102.616 140.767 111.813 131.577C117.876 125.519 121.905 116.587 122.745 114.625C124.438 108.821 128.914 102.368 136.352 102.368C136.981 102.368 137.61 102.418 138.231 102.516C141.486 103.028 144.334 104.904 146.369 107.726C148.566 104.996 150.699 102.823 152.63 101.597C155.539 99.753 158.445 98.817 161.272 98.817C164.388 98.817 167.212 99.947 169.345 102.02C169.384 101.851 169.422 101.682 169.459 101.512L169.568 101.006C169.607 100.821 169.646 100.636 169.683 100.451C169.749 100.124 169.815 99.797 169.878 99.467C169.944 99.125 170.007 98.781 170.067 98.437L170.098 98.251C170.117 98.141 170.135 98.031 170.156 97.92C170.19 97.748 170.218 97.576 170.246 97.402L170.257 97.336L170.328 96.883L170.398 96.424V96.42C170.449 96.081 170.497 95.742 170.542 95.403L170.553 95.319L170.616 94.841L170.667 94.433L170.757 93.629L170.792 93.306L170.801 93.218C170.82 93.044 170.838 92.87 170.854 92.696V92.682C170.867 92.544 170.881 92.405 170.893 92.266C170.964 91.478 171.024 90.686 171.072 89.891C171.081 89.761 171.088 89.63 171.096 89.499V89.493L171.122 89.002L171.128 88.892C171.144 88.56 171.158 88.228 171.169 87.896V87.884L171.174 87.754C171.179 87.645 171.183 87.535 171.183 87.425L171.185 87.381C171.189 87.278 171.193 87.172 171.193 87.067L171.196 86.977C171.199 86.872 171.202 86.768 171.202 86.663L171.204 86.574C171.207 86.441 171.21 86.307 171.21 86.174V85.685ZM76.6378 161.391C82.6398 152.59 82.2138 145.984 73.9798 137.754C65.7439 129.523 60.9508 117.487 60.9508 117.487C60.9508 117.487 59.1619 110.496 55.0819 111.138C51.0019 111.78 48.0089 122.227 56.5519 128.622C65.0939 135.017 54.8519 139.353 51.5639 133.352C48.2759 127.35 39.2988 111.923 34.6448 108.972C29.9908 106.021 26.7178 107.675 27.8148 113.757C28.3598 116.776 33.4279 121.929 38.1629 126.743C42.9669 131.627 47.4278 136.163 46.4738 137.768C44.5808 140.955 37.9139 134.023 37.9139 134.023C37.9139 134.023 17.0378 115.025 12.4938 119.976C8.30383 124.539 14.7648 128.418 24.7209 134.397C25.5669 134.905 26.4389 135.429 27.3319 135.969C38.7229 142.865 39.6088 144.684 37.9918 147.293C37.3948 148.257 33.5818 145.968 28.8918 143.153C20.8968 138.352 10.3549 132.023 8.86593 137.688C7.57793 142.591 15.3338 145.595 22.3678 148.32C28.2278 150.59 33.5879 152.666 32.7989 155.484C31.9819 158.406 27.5529 155.969 22.7119 153.305C17.2769 150.314 11.3219 147.038 9.37293 150.735C5.68993 157.725 34.7829 165.954 35.0229 166.015C44.4229 168.453 68.2948 173.619 76.6378 161.391ZM115.303 161.391C109.301 152.59 109.727 145.984 117.962 137.754C126.197 129.523 130.99 117.487 130.99 117.487C130.99 117.487 132.779 110.496 136.859 111.138C140.939 111.78 143.932 122.227 135.39 128.622C126.847 135.017 137.089 139.353 140.377 133.352C143.666 127.35 152.637 111.923 157.291 108.972C161.945 106.021 165.22 107.675 164.122 113.757C163.578 116.776 158.509 121.929 153.774 126.744C148.97 131.628 144.509 136.163 145.462 137.768C147.355 140.955 154.027 134.019 154.027 134.019C154.027 134.019 174.902 115.022 179.448 119.973C183.637 124.535 177.176 128.415 167.219 134.394C166.348 134.917 165.478 135.441 164.609 135.966C153.218 142.862 152.332 144.681 153.948 147.289C154.546 148.254 158.359 145.964 163.048 143.149C171.044 138.349 181.586 132.019 183.075 137.685C184.364 142.588 176.607 145.592 169.573 148.317C163.713 150.587 158.353 152.663 159.141 155.481C159.957 158.402 164.385 155.965 169.225 153.301C174.66 150.31 180.616 147.032 182.564 150.732C186.248 157.726 157.15 165.947 156.915 166.007C147.515 168.453 123.643 173.619 115.303 161.391Z" fill="#FFD21E"/>
<path fill-rule="evenodd" clip-rule="evenodd" d="M120.047 64.567C121.229 64.985 122.108 66.257 122.944 67.468C124.074 69.104 125.126 70.627 126.74 69.769C128.644 68.756 130.205 67.202 131.225 65.302C132.246 63.402 132.681 61.2427 132.475 59.096C132.321 57.4908 131.813 55.9398 130.987 54.5548C130.161 53.1697 129.038 51.985 127.7 51.0862C126.361 50.1874 124.839 49.5968 123.245 49.3569C121.65 49.117 120.022 49.2339 118.478 49.699C116.934 50.1639 115.513 50.9653 114.316 52.0455C113.119 53.1257 112.176 54.4578 111.556 55.946C110.936 57.4342 110.653 59.0415 110.728 60.652C110.804 62.263 111.235 63.836 111.992 65.26C112.74 66.667 114.4 66.003 116.152 65.302C117.525 64.753 118.956 64.181 120.047 64.567ZM68.672 64.567C67.49 64.985 66.611 66.258 65.775 67.468C64.645 69.105 63.592 70.627 61.979 69.769C59.5845 68.501 57.7482 66.386 56.8278 63.838C55.9075 61.2895 55.9692 58.4896 57.0008 55.9841C58.0324 53.4786 59.9601 51.4471 62.408 50.2855C64.856 49.1239 67.6488 48.9156 70.242 49.701C72.307 50.3228 74.141 51.5427 75.513 53.2065C76.885 54.8704 77.732 56.9035 77.949 59.049C78.165 61.1945 77.74 63.356 76.728 65.26C75.979 66.667 74.319 66.003 72.567 65.303C71.193 64.753 69.764 64.181 68.672 64.567ZM112.099 111.318C120.242 104.903 123.233 94.429 123.233 87.977C123.233 82.877 119.802 84.482 114.309 87.202L113.999 87.355C108.957 89.852 102.245 93.177 94.877 93.177C87.508 93.177 80.796 89.852 75.755 87.354C70.084 84.545 66.527 82.783 66.527 87.978C66.527 94.634 69.709 105.563 78.443 111.912C79.596 109.573 81.219 107.497 83.211 105.813C85.202 104.129 87.52 102.874 90.018 102.126C90.89 101.866 91.788 103.367 92.707 104.904C93.594 106.386 94.501 107.902 95.423 107.902C96.406 107.902 97.371 106.408 98.314 104.95C99.299 103.425 100.26 101.94 101.189 102.237C105.864 103.738 109.775 106.993 112.099 111.318Z" fill="#32343D"/>
<path d="M112.097 111.317C107.856 114.659 102.219 116.9 94.8779 116.9C87.9809 116.9 82.5869 114.922 78.4429 111.911C79.5959 109.572 81.2189 107.495 83.2109 105.812C85.2019 104.128 87.5199 102.873 90.0179 102.125C91.7299 101.614 93.5449 107.901 95.4229 107.901C97.4329 107.901 99.3699 101.655 101.189 102.236C105.863 103.738 109.773 106.993 112.097 111.317Z" fill="#FF323D"/>
<path fill-rule="evenodd" clip-rule="evenodd" d="M49.2 73.64C48.2312 74.288 47.1173 74.687 45.9572 74.801C44.7971 74.916 43.6267 74.742 42.55 74.295C41.6893 73.94 40.9072 73.418 40.2488 72.759C39.5903 72.101 39.0684 71.319 38.713 70.458C38.267 69.381 38.0935 68.211 38.2082 67.051C38.3228 65.891 38.7219 64.777 39.37 63.808C40.1488 62.642 41.2558 61.7333 42.5512 61.1967C43.8466 60.6601 45.272 60.5197 46.6471 60.7935C48.0223 61.0672 49.2853 61.7427 50.2764 62.734C51.2675 63.726 51.9422 64.99 52.215 66.365C52.4883 67.74 52.3477 69.165 51.8113 70.46C51.2748 71.755 50.3654 72.861 49.2 73.64ZM150.613 73.64C149.644 74.288 148.53 74.687 147.37 74.801C146.209 74.916 145.039 74.742 143.962 74.295C143.101 73.939 142.319 73.418 141.661 72.759C141.003 72.101 140.481 71.319 140.125 70.458C139.68 69.381 139.507 68.211 139.621 67.051C139.736 65.891 140.135 64.777 140.782 63.808C141.364 62.936 142.133 62.205 143.032 61.6658C143.931 61.1269 144.938 60.7942 145.981 60.6917C147.025 60.5891 148.078 60.7193 149.064 61.0728C150.051 61.4264 150.947 61.9944 151.688 62.736C152.68 63.727 153.355 64.99 153.628 66.365C153.902 67.74 153.761 69.165 153.224 70.46C152.687 71.755 151.779 72.861 150.613 73.64Z" fill="#FFAD03"/>
</svg>
