<svg width="48" height="49" viewBox="0 0 48 49" fill="none" xmlns="http://www.w3.org/2000/svg">
<path d="M24 30.915C24.8284 30.915 25.5 30.2435 25.5 29.415C25.5 28.5866 24.8284 27.915 24 27.915C23.1716 27.915 22.5 28.5866 22.5 29.415C22.5 30.2435 23.1716 30.915 24 30.915Z" fill="#1B41FF"/>
<path d="M24 21.915C24.8284 21.915 25.5 21.2435 25.5 20.415C25.5 19.5866 24.8284 18.915 24 18.915C23.1716 18.915 22.5 19.5866 22.5 20.415C22.5 21.2435 23.1716 21.915 24 21.915Z" fill="#1B41FF"/>
<path d="M24 26.415C24.8284 26.415 25.5 25.7435 25.5 24.915C25.5 24.0866 24.8284 23.415 24 23.415C23.1716 23.415 22.5 24.0866 22.5 24.915C22.5 25.7435 23.1716 26.415 24 26.415Z" fill="#1B41FF"/>
<path d="M19.5 26.415C20.3284 26.415 21 25.7435 21 24.915C21 24.0866 20.3284 23.415 19.5 23.415C18.6716 23.415 18 24.0866 18 24.915C18 25.7435 18.6716 26.415 19.5 26.415Z" fill="#1B41FF"/>
<path d="M10.5 26.415C11.3284 26.415 12 25.7435 12 24.915C12 24.0866 11.3284 23.415 10.5 23.415C9.67157 23.415 9 24.0866 9 24.915C9 25.7435 9.67157 26.415 10.5 26.415Z" fill="#1B41FF"/>
<path d="M10.5 30.915C11.3284 30.915 12 30.2435 12 29.415C12 28.5866 11.3284 27.915 10.5 27.915C9.67157 27.915 9 28.5866 9 29.415C9 30.2435 9.67157 30.915 10.5 30.915Z" fill="#1B41FF"/>
<path d="M15 35.415C15.8284 35.415 16.5 34.7435 16.5 33.915C16.5 33.0866 15.8284 32.415 15 32.415C14.1716 32.415 13.5 33.0866 13.5 33.915C13.5 34.7435 14.1716 35.415 15 35.415Z" fill="#1B41FF"/>
<path d="M10.5 21.915C11.3284 21.915 12 21.2435 12 20.415C12 19.5866 11.3284 18.915 10.5 18.915C9.67157 18.915 9 19.5866 9 20.415C9 21.2435 9.67157 21.915 10.5 21.915Z" fill="#1B41FF"/>
<path d="M1.5 26.415C2.32843 26.415 3 25.7435 3 24.915C3 24.0866 2.32843 23.415 1.5 23.415C0.671573 23.415 0 24.0866 0 24.915C0 25.7435 0.671573 26.415 1.5 26.415Z" fill="#1B41FF"/>
<path d="M1.5 30.915C2.32843 30.915 3 30.2435 3 29.415C3 28.5866 2.32843 27.915 1.5 27.915C0.671573 27.915 0 28.5866 0 29.415C0 30.2435 0.671573 30.915 1.5 30.915Z" fill="#1B41FF"/>
<path d="M1.5 35.415C2.32843 35.415 3 34.7435 3 33.915C3 33.0866 2.32843 32.415 1.5 32.415C0.671573 32.415 0 33.0866 0 33.915C0 34.7435 0.671573 35.415 1.5 35.415Z" fill="#1B41FF"/>
<path d="M6 39.915C6.82843 39.915 7.5 39.2435 7.5 38.415C7.5 37.5866 6.82843 36.915 6 36.915C5.17157 36.915 4.5 37.5866 4.5 38.415C4.5 39.2435 5.17157 39.915 6 39.915Z" fill="#1B41FF"/>
<path d="M10.5 44.415C11.3284 44.415 12 43.7435 12 42.915C12 42.0866 11.3284 41.415 10.5 41.415C9.67157 41.415 9 42.0866 9 42.915C9 43.7435 9.67157 44.415 10.5 44.415Z" fill="#1B41FF"/>
<path d="M1.5 21.915C2.32843 21.915 3 21.2435 3 20.415C3 19.5866 2.32843 18.915 1.5 18.915C0.671573 18.915 0 19.5866 0 20.415C0 21.2435 0.671573 21.915 1.5 21.915Z" fill="#1B41FF"/>
<path d="M1.5 17.415C2.32843 17.415 3 16.7435 3 15.915C3 15.0866 2.32843 14.415 1.5 14.415C0.671573 14.415 0 15.0866 0 15.915C0 16.7435 0.671573 17.415 1.5 17.415Z" fill="#1B41FF"/>
<path d="M6 12.915C6.82843 12.915 7.5 12.2435 7.5 11.415C7.5 10.5866 6.82843 9.91504 6 9.91504C5.17157 9.91504 4.5 10.5866 4.5 11.415C4.5 12.2435 5.17157 12.915 6 12.915Z" fill="#1B41FF"/>
<path d="M10.5 8.41504C11.3284 8.41504 12 7.74347 12 6.91504C12 6.08661 11.3284 5.41504 10.5 5.41504C9.67157 5.41504 9 6.08661 9 6.91504C9 7.74347 9.67157 8.41504 10.5 8.41504Z" fill="#1B41FF"/>
<path d="M15 17.415C15.8284 17.415 16.5 16.7435 16.5 15.915C16.5 15.0866 15.8284 14.415 15 14.415C14.1716 14.415 13.5 15.0866 13.5 15.915C13.5 16.7435 14.1716 17.415 15 17.415Z" fill="#1B41FF"/>
<path d="M37.5 26.415C38.3284 26.415 39 25.7435 39 24.915C39 24.0866 38.3284 23.415 37.5 23.415C36.6716 23.415 36 24.0866 36 24.915C36 25.7435 36.6716 26.415 37.5 26.415Z" fill="#1B41FF"/>
<path d="M37.5 30.915C38.3284 30.915 39 30.2435 39 29.415C39 28.5866 38.3284 27.915 37.5 27.915C36.6716 27.915 36 28.5866 36 29.415C36 30.2435 36.6716 30.915 37.5 30.915Z" fill="#1B41FF"/>
<path d="M33 35.415C33.8284 35.415 34.5 34.7435 34.5 33.915C34.5 33.0866 33.8284 32.415 33 32.415C32.1716 32.415 31.5 33.0866 31.5 33.915C31.5 34.7435 32.1716 35.415 33 35.415Z" fill="#1B41FF"/>
<path d="M37.5 21.915C38.3284 21.915 39 21.2435 39 20.415C39 19.5866 38.3284 18.915 37.5 18.915C36.6716 18.915 36 19.5866 36 20.415C36 21.2435 36.6716 21.915 37.5 21.915Z" fill="#1B41FF"/>
<path d="M46.5 26.415C47.3284 26.415 48 25.7435 48 24.915C48 24.0866 47.3284 23.415 46.5 23.415C45.6716 23.415 45 24.0866 45 24.915C45 25.7435 45.6716 26.415 46.5 26.415Z" fill="#1B41FF"/>
<path d="M46.5 30.915C47.3284 30.915 48 30.2435 48 29.415C48 28.5866 47.3284 27.915 46.5 27.915C45.6716 27.915 45 28.5866 45 29.415C45 30.2435 45.6716 30.915 46.5 30.915Z" fill="#1B41FF"/>
<path d="M46.5 35.415C47.3284 35.415 48 34.7435 48 33.915C48 33.0866 47.3284 32.415 46.5 32.415C45.6716 32.415 45 33.0866 45 33.915C45 34.7435 45.6716 35.415 46.5 35.415Z" fill="#1B41FF"/>
<path d="M42 39.915C42.8284 39.915 43.5 39.2435 43.5 38.415C43.5 37.5866 42.8284 36.915 42 36.915C41.1716 36.915 40.5 37.5866 40.5 38.415C40.5 39.2435 41.1716 39.915 42 39.915Z" fill="#1B41FF"/>
<path d="M37.5 44.415C38.3284 44.415 39 43.7435 39 42.915C39 42.0866 38.3284 41.415 37.5 41.415C36.6716 41.415 36 42.0866 36 42.915C36 43.7435 36.6716 44.415 37.5 44.415Z" fill="#1B41FF"/>
<path d="M46.5 21.915C47.3284 21.915 48 21.2435 48 20.415C48 19.5866 47.3284 18.915 46.5 18.915C45.6716 18.915 45 19.5866 45 20.415C45 21.2435 45.6716 21.915 46.5 21.915Z" fill="#1B41FF"/>
<path d="M46.5 17.415C47.3284 17.415 48 16.7435 48 15.915C48 15.0866 47.3284 14.415 46.5 14.415C45.6716 14.415 45 15.0866 45 15.915C45 16.7435 45.6716 17.415 46.5 17.415Z" fill="#1B41FF"/>
<path d="M42 12.915C42.8284 12.915 43.5 12.2435 43.5 11.415C43.5 10.5866 42.8284 9.91504 42 9.91504C41.1716 9.91504 40.5 10.5866 40.5 11.415C40.5 12.2435 41.1716 12.915 42 12.915Z" fill="#1B41FF"/>
<path d="M37.5 8.41504C38.3284 8.41504 39 7.74347 39 6.91504C39 6.08661 38.3284 5.41504 37.5 5.41504C36.6716 5.41504 36 6.08661 36 6.91504C36 7.74347 36.6716 8.41504 37.5 8.41504Z" fill="#1B41FF"/>
<path d="M33 17.415C33.8284 17.415 34.5 16.7435 34.5 15.915C34.5 15.0866 33.8284 14.415 33 14.415C32.1716 14.415 31.5 15.0866 31.5 15.915C31.5 16.7435 32.1716 17.415 33 17.415Z" fill="#1B41FF"/>
<path d="M28.5 26.415C29.3284 26.415 30 25.7435 30 24.915C30 24.0866 29.3284 23.415 28.5 23.415C27.6716 23.415 27 24.0866 27 24.915C27 25.7435 27.6716 26.415 28.5 26.415Z" fill="#1B41FF"/>
</svg>
