<svg width="212" height="45" viewBox="0 0 212 45" fill="none" xmlns="http://www.w3.org/2000/svg">
<path d="M1.404 33.048C1.188 32.712 1.092 32.328 1.116 31.896C1.14 31.44 1.392 31.056 1.872 30.744C2.208 30.528 2.556 30.444 2.916 30.492C3.3 30.516 3.66 30.696 3.996 31.032C4.668 31.776 5.412 32.364 6.228 32.796C7.068 33.228 8.076 33.444 9.252 33.444C9.732 33.42 10.224 33.348 10.728 33.228C11.232 33.084 11.664 32.844 12.024 32.508C12.384 32.148 12.564 31.632 12.564 30.96C12.564 30.36 12.372 29.88 11.988 29.52C11.604 29.16 11.1 28.872 10.476 28.656C9.852 28.416 9.18 28.2 8.46 28.008C7.692 27.792 6.912 27.552 6.12 27.288C5.352 27.024 4.656 26.688 4.032 26.28C3.408 25.848 2.892 25.296 2.484 24.624C2.1 23.952 1.908 23.124 1.908 22.14C1.908 21.012 2.22 20.04 2.844 19.224C3.492 18.408 4.32 17.772 5.328 17.316C6.36 16.86 7.476 16.632 8.676 16.632C9.372 16.632 10.104 16.728 10.872 16.92C11.64 17.088 12.384 17.364 13.104 17.748C13.824 18.132 14.448 18.636 14.976 19.26C15.216 19.572 15.348 19.944 15.372 20.376C15.42 20.808 15.228 21.192 14.796 21.528C14.508 21.768 14.16 21.876 13.752 21.852C13.344 21.828 13.008 21.696 12.744 21.456C12.288 20.88 11.7 20.436 10.98 20.124C10.26 19.788 9.444 19.62 8.532 19.62C8.076 19.62 7.596 19.692 7.092 19.836C6.612 19.956 6.204 20.184 5.868 20.52C5.532 20.856 5.364 21.348 5.364 21.996C5.364 22.596 5.556 23.076 5.94 23.436C6.348 23.796 6.876 24.096 7.524 24.336C8.172 24.576 8.88 24.792 9.648 24.984C10.392 25.176 11.124 25.404 11.844 25.668C12.588 25.932 13.248 26.28 13.824 26.712C14.424 27.12 14.904 27.66 15.264 28.332C15.648 28.98 15.84 29.808 15.84 30.816C15.84 31.992 15.492 33 14.796 33.84C14.124 34.656 13.26 35.28 12.204 35.712C11.172 36.144 10.08 36.36 8.928 36.36C7.56 36.36 6.192 36.12 4.824 35.64C3.48 35.136 2.34 34.272 1.404 33.048ZM37.8554 26.532C37.8554 28.452 37.4354 30.156 36.5954 31.644C35.7554 33.108 34.6154 34.26 33.1754 35.1C31.7354 35.94 30.1154 36.36 28.3154 36.36C26.5154 36.36 24.8954 35.94 23.4554 35.1C22.0154 34.26 20.8634 33.108 19.9994 31.644C19.1594 30.156 18.7394 28.452 18.7394 26.532C18.7394 24.588 19.1594 22.884 19.9994 21.42C20.8634 19.932 22.0154 18.768 23.4554 17.928C24.8954 17.064 26.5154 16.632 28.3154 16.632C30.1154 16.632 31.7354 17.064 33.1754 17.928C34.6154 18.768 35.7554 19.932 36.5954 21.42C37.4354 22.884 37.8554 24.588 37.8554 26.532ZM34.2554 26.532C34.2554 25.212 33.9914 24.072 33.4634 23.112C32.9354 22.128 32.2154 21.36 31.3034 20.808C30.4154 20.232 29.4194 19.944 28.3154 19.944C27.2114 19.944 26.2034 20.232 25.2914 20.808C24.3794 21.36 23.6594 22.128 23.1314 23.112C22.6034 24.072 22.3394 25.212 22.3394 26.532C22.3394 27.804 22.6034 28.932 23.1314 29.916C23.6594 30.9 24.3794 31.668 25.2914 32.22C26.2034 32.772 27.2114 33.048 28.3154 33.048C29.4194 33.048 30.4154 32.772 31.3034 32.22C32.2154 31.668 32.9354 30.9 33.4634 29.916C33.9914 28.932 34.2554 27.804 34.2554 26.532ZM44.0182 36C43.5142 36 43.0822 35.832 42.7222 35.496C42.3862 35.136 42.2182 34.692 42.2182 34.164V11.196C42.2182 10.668 42.3862 10.236 42.7222 9.9C43.0822 9.54 43.5142 9.36 44.0182 9.36C44.5462 9.36 44.9782 9.54 45.3142 9.9C45.6502 10.236 45.8182 10.668 45.8182 11.196V34.164C45.8182 34.692 45.6502 35.136 45.3142 35.496C44.9782 35.832 44.5462 36 44.0182 36ZM55.7542 16.992C56.2102 16.992 56.6062 17.184 56.9422 17.568C57.2782 17.952 57.4462 18.336 57.4462 18.72C57.4462 19.2 57.2182 19.644 56.7622 20.052L45.4942 30.132L45.3502 25.992L54.4222 17.568C54.8062 17.184 55.2502 16.992 55.7542 16.992ZM56.1862 35.964C55.6822 35.964 55.2502 35.76 54.8902 35.352L47.6902 27.756L50.4262 25.236L57.4462 32.832C57.8302 33.24 58.0222 33.696 58.0222 34.2C58.0222 34.728 57.8062 35.16 57.3742 35.496C56.9662 35.808 56.5702 35.964 56.1862 35.964ZM70.0158 36.36C68.0238 36.36 66.2958 35.952 64.8318 35.136C63.3678 34.296 62.2278 33.156 61.4118 31.716C60.6198 30.252 60.2238 28.584 60.2238 26.712C60.2238 24.6 60.6438 22.8 61.4838 21.312C62.3478 19.8 63.4638 18.648 64.8318 17.856C66.1998 17.04 67.6518 16.632 69.1878 16.632C70.3638 16.632 71.4798 16.872 72.5358 17.352C73.5918 17.808 74.5278 18.456 75.3438 19.296C76.1838 20.112 76.8438 21.084 77.3238 22.212C77.8038 23.316 78.0558 24.528 78.0798 25.848C78.0558 26.328 77.8638 26.724 77.5038 27.036C77.1438 27.348 76.7238 27.504 76.2438 27.504H62.2398L61.3758 24.444H74.9118L74.2278 25.092V24.192C74.1798 23.352 73.9038 22.62 73.3998 21.996C72.8958 21.348 72.2718 20.856 71.5278 20.52C70.7838 20.16 70.0038 19.98 69.1878 19.98C68.4678 19.98 67.7718 20.1 67.0998 20.34C66.4518 20.556 65.8638 20.916 65.3358 21.42C64.8318 21.924 64.4238 22.596 64.1118 23.436C63.8238 24.252 63.6798 25.272 63.6798 26.496C63.6798 27.816 63.9558 28.968 64.5078 29.952C65.0598 30.936 65.8038 31.704 66.7398 32.256C67.6758 32.784 68.7078 33.048 69.8358 33.048C70.7238 33.048 71.4558 32.964 72.0318 32.796C72.6078 32.604 73.0878 32.376 73.4718 32.112C73.8558 31.848 74.1918 31.596 74.4798 31.356C74.8398 31.14 75.1998 31.032 75.5598 31.032C75.9918 31.032 76.3518 31.188 76.6398 31.5C76.9278 31.788 77.0718 32.136 77.0718 32.544C77.0718 33.072 76.8078 33.552 76.2798 33.984C75.6318 34.608 74.7318 35.16 73.5798 35.64C72.4518 36.12 71.2638 36.36 70.0158 36.36ZM81.8969 17.28H90.3569C90.8369 17.28 91.2329 17.448 91.5449 17.784C91.8809 18.096 92.0489 18.492 92.0489 18.972C92.0489 19.428 91.8809 19.812 91.5449 20.124C91.2329 20.436 90.8369 20.592 90.3569 20.592H81.8969C81.4169 20.592 81.0089 20.436 80.6729 20.124C80.3609 19.788 80.2049 19.392 80.2049 18.936C80.2049 18.456 80.3609 18.06 80.6729 17.748C81.0089 17.436 81.4169 17.28 81.8969 17.28ZM85.6769 12.6C86.2049 12.6 86.6369 12.78 86.9729 13.14C87.3089 13.476 87.4769 13.908 87.4769 14.436V31.14C87.4769 31.572 87.5489 31.92 87.6929 32.184C87.8369 32.448 88.0289 32.628 88.2689 32.724C88.5329 32.82 88.7969 32.868 89.0609 32.868C89.3249 32.868 89.5529 32.82 89.7449 32.724C89.9609 32.628 90.2129 32.58 90.5009 32.58C90.7889 32.58 91.0529 32.712 91.2929 32.976C91.5329 33.24 91.6529 33.6 91.6529 34.056C91.6529 34.632 91.3409 35.1 90.7169 35.46C90.0929 35.82 89.4209 36 88.7009 36C88.2929 36 87.8129 35.964 87.2609 35.892C86.7089 35.82 86.1689 35.64 85.6409 35.352C85.1369 35.064 84.7169 34.608 84.3809 33.984C84.0449 33.336 83.8769 32.436 83.8769 31.284V14.436C83.8769 13.908 84.0449 13.476 84.3809 13.14C84.7409 12.78 85.1729 12.6 85.6769 12.6Z" fill="#3900DB"/>
<path d="M98.7356 34.92C98.7356 35.208 98.6276 35.46 98.4116 35.676C98.1956 35.892 97.9436 36 97.6556 36C97.3436 36 97.0796 35.892 96.8636 35.676C96.6716 35.46 96.5756 35.208 96.5756 34.92V10.44C96.5756 10.152 96.6836 9.9 96.8996 9.684C97.1156 9.468 97.3676 9.36 97.6556 9.36C97.9676 9.36 98.2196 9.468 98.4116 9.684C98.6276 9.9 98.7356 10.152 98.7356 10.44V34.92ZM119.741 17.604C120.053 17.604 120.305 17.712 120.497 17.928C120.713 18.144 120.82 18.408 120.82 18.72V34.92C120.82 35.208 120.713 35.46 120.497 35.676C120.281 35.892 120.029 36 119.741 36C119.429 36 119.165 35.892 118.949 35.676C118.757 35.46 118.661 35.208 118.661 34.92V30.636L119.273 30.348C119.273 31.02 119.081 31.704 118.697 32.4C118.337 33.096 117.833 33.744 117.185 34.344C116.537 34.944 115.769 35.436 114.881 35.82C114.017 36.18 113.081 36.36 112.073 36.36C110.441 36.36 108.977 35.94 107.681 35.1C106.409 34.26 105.401 33.108 104.657 31.644C103.937 30.18 103.577 28.536 103.577 26.712C103.577 24.84 103.949 23.196 104.693 21.78C105.437 20.34 106.445 19.212 107.717 18.396C108.989 17.58 110.429 17.172 112.037 17.172C113.069 17.172 114.029 17.352 114.917 17.712C115.829 18.072 116.621 18.564 117.293 19.188C117.965 19.812 118.481 20.532 118.841 21.348C119.225 22.14 119.417 22.968 119.417 23.832L118.661 23.292V18.72C118.661 18.408 118.757 18.144 118.949 17.928C119.165 17.712 119.429 17.604 119.741 17.604ZM112.253 34.344C113.525 34.344 114.653 34.02 115.637 33.372C116.621 32.7 117.389 31.788 117.941 30.636C118.517 29.46 118.805 28.152 118.805 26.712C118.805 25.296 118.517 24.024 117.941 22.896C117.389 21.768 116.621 20.868 115.637 20.196C114.653 19.524 113.525 19.188 112.253 19.188C111.005 19.188 109.877 19.512 108.869 20.16C107.885 20.808 107.105 21.696 106.529 22.824C105.977 23.952 105.701 25.248 105.701 26.712C105.701 28.152 105.977 29.46 106.529 30.636C107.105 31.788 107.885 32.7 108.869 33.372C109.853 34.02 110.981 34.344 112.253 34.344ZM135.237 17.172C136.869 17.172 138.309 17.58 139.557 18.396C140.829 19.212 141.837 20.34 142.581 21.78C143.325 23.196 143.697 24.84 143.697 26.712C143.697 28.536 143.325 30.18 142.581 31.644C141.837 33.108 140.829 34.26 139.557 35.1C138.285 35.94 136.857 36.36 135.273 36.36C134.433 36.36 133.629 36.228 132.861 35.964C132.117 35.7 131.433 35.352 130.809 34.92C130.185 34.464 129.633 33.936 129.153 33.336C128.673 32.736 128.289 32.088 128.001 31.392L128.649 30.924V34.992C128.649 35.304 128.541 35.568 128.325 35.784C128.133 35.976 127.881 36.072 127.569 36.072C127.257 36.072 126.993 35.976 126.777 35.784C126.585 35.568 126.489 35.304 126.489 34.992V10.476C126.489 10.164 126.585 9.912 126.777 9.72C126.969 9.504 127.233 9.396 127.569 9.396C127.881 9.396 128.133 9.504 128.325 9.72C128.541 9.912 128.649 10.164 128.649 10.476V22.536L128.145 22.248C128.385 21.504 128.733 20.832 129.189 20.232C129.669 19.608 130.221 19.068 130.845 18.612C131.469 18.156 132.153 17.808 132.897 17.568C133.641 17.304 134.421 17.172 135.237 17.172ZM135.057 19.188C133.761 19.188 132.621 19.512 131.637 20.16C130.653 20.808 129.873 21.696 129.297 22.824C128.745 23.952 128.469 25.248 128.469 26.712C128.469 28.152 128.745 29.46 129.297 30.636C129.873 31.788 130.653 32.7 131.637 33.372C132.621 34.02 133.761 34.344 135.057 34.344C136.329 34.344 137.445 34.008 138.405 33.336C139.389 32.664 140.169 31.752 140.745 30.6C141.321 29.424 141.609 28.128 141.609 26.712C141.609 25.248 141.321 23.952 140.745 22.824C140.169 21.696 139.389 20.808 138.405 20.16C137.445 19.512 136.329 19.188 135.057 19.188ZM147.277 33.084C147.085 32.796 146.989 32.52 146.989 32.256C147.013 31.968 147.169 31.74 147.457 31.572C147.649 31.404 147.865 31.332 148.105 31.356C148.369 31.38 148.609 31.5 148.825 31.716C149.473 32.556 150.253 33.24 151.165 33.768C152.101 34.272 153.205 34.524 154.477 34.524C155.149 34.524 155.809 34.416 156.457 34.2C157.129 33.96 157.681 33.612 158.113 33.156C158.545 32.676 158.761 32.076 158.761 31.356C158.761 30.612 158.545 30.012 158.113 29.556C157.681 29.1 157.117 28.74 156.421 28.476C155.749 28.212 155.029 27.984 154.261 27.792C153.445 27.576 152.653 27.336 151.885 27.072C151.117 26.784 150.433 26.436 149.833 26.028C149.257 25.596 148.789 25.08 148.429 24.48C148.069 23.88 147.889 23.148 147.889 22.284C147.889 21.276 148.165 20.388 148.717 19.62C149.269 18.852 150.013 18.252 150.949 17.82C151.909 17.388 152.989 17.172 154.189 17.172C154.789 17.172 155.437 17.256 156.133 17.424C156.829 17.568 157.513 17.82 158.185 18.18C158.857 18.54 159.457 19.032 159.985 19.656C160.201 19.872 160.309 20.124 160.309 20.412C160.309 20.676 160.189 20.916 159.949 21.132C159.757 21.276 159.529 21.348 159.265 21.348C159.025 21.348 158.821 21.252 158.653 21.06C158.077 20.412 157.393 19.92 156.601 19.584C155.809 19.248 154.957 19.08 154.045 19.08C153.349 19.08 152.689 19.2 152.065 19.44C151.465 19.656 150.961 19.992 150.553 20.448C150.145 20.904 149.941 21.504 149.941 22.248C149.989 22.944 150.229 23.508 150.661 23.94C151.117 24.372 151.705 24.732 152.425 25.02C153.169 25.308 153.997 25.572 154.909 25.812C155.677 26.004 156.409 26.232 157.105 26.496C157.825 26.76 158.449 27.096 158.977 27.504C159.529 27.888 159.961 28.38 160.273 28.98C160.609 29.58 160.777 30.336 160.777 31.248C160.777 32.304 160.477 33.216 159.877 33.984C159.301 34.752 158.521 35.34 157.537 35.748C156.553 36.156 155.461 36.36 154.261 36.36C152.965 36.36 151.705 36.108 150.481 35.604C149.281 35.1 148.213 34.26 147.277 33.084Z" fill="#323133"/>
<rect x="166" y="6" width="46" height="36" rx="2" fill="#3900DB"/>
<path d="M173.528 35.964C173.024 35.964 172.628 35.82 172.34 35.532C172.076 35.244 171.944 34.848 171.944 34.344V33.624C171.944 33.096 172.076 32.688 172.34 32.4C172.628 32.112 173.024 31.968 173.528 31.968H173.816C174.344 31.968 174.74 32.112 175.004 32.4C175.268 32.688 175.4 33.096 175.4 33.624V34.344C175.4 34.848 175.268 35.244 175.004 35.532C174.74 35.82 174.344 35.964 173.816 35.964H173.528ZM195.348 17.208C195.756 17.208 196.092 17.352 196.356 17.64C196.644 17.904 196.788 18.24 196.788 18.648V34.524C196.788 34.932 196.644 35.28 196.356 35.568C196.092 35.856 195.756 36 195.348 36C194.916 36 194.568 35.856 194.304 35.568C194.04 35.28 193.908 34.932 193.908 34.524V31.104L194.592 31.032C194.592 31.56 194.412 32.136 194.052 32.76C193.692 33.384 193.2 33.972 192.576 34.524C191.952 35.052 191.208 35.496 190.344 35.856C189.504 36.192 188.592 36.36 187.608 36.36C185.976 36.36 184.512 35.94 183.216 35.1C181.92 34.236 180.888 33.072 180.12 31.608C179.376 30.144 179.004 28.476 179.004 26.604C179.004 24.708 179.376 23.04 180.12 21.6C180.888 20.136 181.92 18.996 183.216 18.18C184.512 17.34 185.952 16.92 187.536 16.92C188.568 16.92 189.528 17.088 190.416 17.424C191.304 17.76 192.072 18.216 192.72 18.792C193.392 19.368 193.908 20.004 194.268 20.7C194.652 21.396 194.844 22.092 194.844 22.788L193.908 22.572V18.648C193.908 18.24 194.04 17.904 194.304 17.64C194.568 17.352 194.916 17.208 195.348 17.208ZM187.932 33.696C189.132 33.696 190.188 33.384 191.1 32.76C192.036 32.136 192.756 31.296 193.26 30.24C193.788 29.16 194.052 27.948 194.052 26.604C194.052 25.284 193.788 24.096 193.26 23.04C192.756 21.96 192.036 21.12 191.1 20.52C190.188 19.896 189.132 19.584 187.932 19.584C186.756 19.584 185.7 19.884 184.764 20.484C183.852 21.084 183.132 21.912 182.604 22.968C182.076 24.024 181.812 25.236 181.812 26.604C181.812 27.948 182.064 29.16 182.568 30.24C183.096 31.296 183.816 32.136 184.728 32.76C185.664 33.384 186.732 33.696 187.932 33.696ZM204.897 34.524C204.897 34.932 204.753 35.28 204.465 35.568C204.201 35.856 203.865 36 203.457 36C203.025 36 202.677 35.856 202.413 35.568C202.149 35.28 202.017 34.932 202.017 34.524V18.54C202.017 18.132 202.149 17.796 202.413 17.532C202.701 17.244 203.049 17.1 203.457 17.1C203.865 17.1 204.201 17.244 204.465 17.532C204.753 17.796 204.897 18.132 204.897 18.54V34.524ZM203.457 14.688C202.857 14.688 202.413 14.568 202.125 14.328C201.837 14.088 201.693 13.716 201.693 13.212V12.708C201.693 12.204 201.849 11.832 202.161 11.592C202.473 11.352 202.917 11.232 203.493 11.232C204.069 11.232 204.501 11.352 204.789 11.592C205.077 11.832 205.221 12.204 205.221 12.708V13.212C205.221 13.716 205.065 14.088 204.753 14.328C204.465 14.568 204.033 14.688 203.457 14.688Z" fill="white"/>
</svg>
