<svg width="143" height="26" viewBox="0 0 143 26" fill="none" xmlns="http://www.w3.org/2000/svg">
<path d="M0 7.13676H18.451V11.196H0V7.13676Z" fill="#1B41FF"/>
<path d="M7.49298e-06 14.3325H18.4511V18.3917H7.49298e-06V14.3325Z" fill="#A3B2FD"/>
<path d="M7.49298e-06 21.5288H18.4511V25.5881H7.49298e-06V21.5288Z" fill="#C4CBEF"/>
<path d="M28.102 16.3624C28.102 17.9966 26.7772 19.3214 25.143 19.3214C23.5088 19.3214 22.184 17.9966 22.184 16.3624C22.184 14.7282 23.5088 13.4034 25.143 13.4034C26.7772 13.4034 28.102 14.7282 28.102 16.3624Z" fill="#1B41FF"/>
<path d="M50.2862 7.13686V25.5879H46.227L46.227 7.13686H50.2862Z" fill="#A3B1FD" fill-opacity="0.48"/>
<path d="M43.0904 7.13685V25.5879H39.0312L39.0312 7.13685H43.0904Z" fill="#1B41FF" fill-opacity="0.39"/>
<path d="M35.8942 7.13685V25.5879H31.835L31.835 7.13685H35.8942Z" fill="#1B41FF" fill-opacity="0.77"/>
<path d="M64.0264 25.588C63.1448 25.588 62.2632 25.5046 61.3816 25.3378C60.5 25.1711 59.678 24.8732 58.9155 24.4443C58.153 24.0154 57.5097 23.4436 56.9855 22.7288C56.4613 21.9901 56.1277 21.0847 55.9848 20.0125H59.7375C59.9282 20.5843 60.2617 21.049 60.7383 21.4064C61.2386 21.7638 61.7867 22.0259 62.3824 22.1927C63.0019 22.3595 63.6094 22.4428 64.2051 22.4428C64.5625 22.4428 64.9557 22.419 65.3846 22.3714C65.8373 22.3237 66.2662 22.2165 66.6712 22.0497C67.0763 21.8829 67.4099 21.6446 67.672 21.3349C67.9341 21.0013 68.0651 20.5605 68.0651 20.0125C68.0651 19.5836 67.946 19.2262 67.7077 18.9403C67.4933 18.6543 67.1835 18.428 66.7785 18.2612C66.3972 18.0706 65.9326 17.9276 65.3846 17.8323C64.3124 17.594 63.1567 17.3677 61.9177 17.1532C60.7025 16.9149 59.6303 16.5099 58.7011 15.938C58.3675 15.7236 58.0696 15.4853 57.8075 15.2232C57.5454 14.9373 57.3191 14.6156 57.1285 14.2582C56.9378 13.9008 56.7949 13.5196 56.6996 13.1145C56.6043 12.7094 56.5566 12.2686 56.5566 11.7921C56.5566 10.8152 56.7472 9.98124 57.1285 9.29025C57.5335 8.59926 58.0816 8.03933 58.7725 7.61044C59.4635 7.15772 60.2498 6.82414 61.1314 6.6097C62.013 6.39525 62.9423 6.28803 63.9192 6.28803C65.182 6.28803 66.3257 6.49056 67.3503 6.89562C68.3749 7.30069 69.2207 7.89636 69.8879 8.68266C70.5551 9.46896 70.9482 10.4578 71.0674 11.6491H67.6005C67.4575 11.0058 67.0406 10.4935 66.3496 10.1123C65.6824 9.70723 64.8365 9.5047 63.812 9.5047C63.4546 9.5047 63.0614 9.52852 62.6325 9.57618C62.2275 9.62383 61.8343 9.73106 61.4531 9.89785C61.0719 10.0646 60.7621 10.3029 60.5238 10.6127C60.2856 10.8986 60.1664 11.2798 60.1664 11.7564C60.1664 12.2091 60.2736 12.5903 60.4881 12.9001C60.7264 13.2098 61.0599 13.46 61.4888 13.6506C61.9416 13.8412 62.4538 13.9961 63.0257 14.1153C63.8358 14.3059 64.7055 14.4846 65.6348 14.6514C66.5878 14.8182 67.3622 14.9969 67.9579 15.1875C68.7442 15.4019 69.4114 15.7117 69.9594 16.1167C70.5312 16.5218 70.9601 17.0341 71.2461 17.6536C71.5558 18.2731 71.7107 19.0236 71.7107 19.9053C71.7107 21.049 71.4843 21.9901 71.0316 22.7288C70.5789 23.4436 69.9713 24.0154 69.2088 24.4443C68.4702 24.8732 67.6362 25.1711 66.707 25.3378C65.8016 25.5046 64.908 25.588 64.0264 25.588Z" fill="#1B41FF"/>
<path d="M83.0429 25.588C81.0891 25.588 79.4331 25.1949 78.0749 24.4086C76.7168 23.5985 75.6803 22.4667 74.9655 21.0132C74.2745 19.5598 73.929 17.8799 73.929 15.9738C73.929 14.0438 74.2864 12.364 75.0012 10.9343C75.716 9.48087 76.7525 8.34908 78.1107 7.53896C79.4688 6.70501 81.1248 6.28803 83.0786 6.28803C85.0325 6.28803 86.6884 6.70501 88.0466 7.53896C89.4047 8.34908 90.4293 9.48087 91.1203 10.9343C91.8113 12.3878 92.1568 14.0795 92.1568 16.0095C92.1568 17.8919 91.7994 19.5598 91.0846 21.0132C90.3936 22.4667 89.369 23.5985 88.0108 24.4086C86.6765 25.1949 85.0205 25.588 83.0429 25.588ZM83.0429 22.2999C84.3296 22.2999 85.366 22.014 86.1523 21.4421C86.9625 20.8703 87.5581 20.1078 87.9394 19.1547C88.3206 18.1778 88.5112 17.1175 88.5112 15.9738C88.5112 14.8301 88.3206 13.7817 87.9394 12.8286C87.5581 11.8755 86.9625 11.113 86.1523 10.5412C85.366 9.9455 84.3296 9.64766 83.0429 9.64766C81.7801 9.64766 80.7436 9.9455 79.9334 10.5412C79.1233 11.113 78.5276 11.8755 78.1464 12.8286C77.789 13.7817 77.6103 14.8301 77.6103 15.9738C77.6103 17.1413 77.789 18.2016 78.1464 19.1547C78.5276 20.1078 79.1233 20.8703 79.9334 21.4421C80.7436 22.014 81.7801 22.2999 83.0429 22.2999Z" fill="#1B41FF"/>
<path d="M120.852 25.588C118.875 25.588 117.219 25.183 115.884 24.3728C114.55 23.5627 113.537 22.4428 112.846 21.0132C112.179 19.5598 111.846 17.8919 111.846 16.0095C111.846 14.1033 112.191 12.4235 112.882 10.9701C113.597 9.51661 114.621 8.37291 115.956 7.53896C117.314 6.70501 118.946 6.28803 120.852 6.28803C122.306 6.28803 123.569 6.56204 124.641 7.11007C125.713 7.63426 126.595 8.34908 127.286 9.25451C128 10.1599 128.525 11.1726 128.858 12.2925C129.192 13.3885 129.335 14.5322 129.287 15.7236C129.287 15.9857 129.275 16.2359 129.251 16.4741C129.227 16.7124 129.204 16.9626 129.18 17.2247H115.563C115.634 18.1778 115.872 19.0475 116.277 19.8338C116.706 20.6201 117.302 21.2515 118.064 21.728C118.827 22.1807 119.768 22.4071 120.888 22.4071C121.507 22.4071 122.103 22.3356 122.675 22.1927C123.271 22.0259 123.795 21.7757 124.248 21.4421C124.724 21.0847 125.058 20.632 125.248 20.084H128.965C128.656 21.3468 128.096 22.3952 127.286 23.2291C126.499 24.0393 125.534 24.6349 124.391 25.0162C123.271 25.3974 122.091 25.588 120.852 25.588ZM115.634 14.294H125.642C125.618 13.3647 125.403 12.5427 124.998 11.8278C124.593 11.0892 124.033 10.5174 123.318 10.1123C122.604 9.6834 121.746 9.46896 120.745 9.46896C119.649 9.46896 118.732 9.69531 117.993 10.148C117.278 10.6007 116.718 11.1964 116.313 11.9351C115.932 12.6499 115.706 13.4362 115.634 14.294Z" fill="#1B41FF"/>
<path d="M140.083 25.3736C138.605 25.3736 137.402 25.1711 136.473 24.766C135.544 24.3371 134.853 23.6699 134.4 22.7645C133.971 21.8591 133.757 20.6796 133.757 19.2262V9.82636H130.79V6.53822H133.757V1.10562H137.438V6.53822H142.191V9.82636H137.438V18.7615C137.438 19.8814 137.64 20.7273 138.045 21.2991C138.451 21.8472 139.296 22.1212 140.583 22.1212H142.048V25.3736H140.083Z" fill="#1B41FF"/>
<path d="M110.996 25.588H106.697L102.29 17.9923L99.4055 21.4319V25.588H95.2795V0.411942H99.4055V15.6455L106.07 7.67359H110.942L104.834 14.9648L110.996 25.588Z" fill="#1B41FF"/>
</svg>
