<svg width="48" height="48" viewBox="0 0 48 48" fill="none" xmlns="http://www.w3.org/2000/svg">
<path d="M34.7481 0.25C34.2631 0.25 33.7978 0.442675 33.4549 0.785658C33.1119 1.12863 32.9193 1.5938 32.9193 2.07885C32.9193 2.56388 33.1119 3.02906 33.4549 3.37204C33.7978 3.71501 34.2631 3.9077 34.7481 3.9077C35.2331 3.9077 35.6984 3.71501 36.0414 3.37204C36.3843 3.02906 36.577 2.56388 36.577 2.07885C36.577 1.5938 36.3843 1.12863 36.0414 0.785658C35.6984 0.442675 35.2331 0.25 34.7481 0.25ZM23.775 0.25C23.29 0.25 22.8248 0.442675 22.4818 0.785658C22.1388 1.12863 21.9462 1.5938 21.9462 2.07885C21.9462 2.56388 22.1388 3.02906 22.4818 3.37204C22.8248 3.71501 23.29 3.9077 23.775 3.9077C24.26 3.9077 24.7253 3.71501 25.0683 3.37204C25.4112 3.02906 25.6039 2.56388 25.6039 2.07885C25.6039 1.5938 25.4112 1.12863 25.0683 0.785658C24.7253 0.442675 24.26 0.25 23.775 0.25ZM12.8019 0.25C12.3169 0.25 11.8517 0.442675 11.5087 0.785658C11.1657 1.12863 10.9731 1.5938 10.9731 2.07885C10.9731 2.56388 11.1657 3.02906 11.5087 3.37204C11.8517 3.71501 12.3169 3.9077 12.8019 3.9077C13.2869 3.9077 13.7522 3.71501 14.0952 3.37204C14.4381 3.02906 14.6308 2.56388 14.6308 2.07885C14.6308 1.5938 14.4381 1.12863 14.0952 0.785658C13.7522 0.442675 13.2869 0.25 12.8019 0.25ZM40.2347 5.73655C39.7497 5.73655 39.2844 5.92926 38.9414 6.27223C38.5985 6.6152 38.4058 7.08033 38.4058 7.56534C38.4058 8.05048 38.5985 8.51561 38.9414 8.85858C39.2844 9.20155 39.7497 9.39419 40.2347 9.39419C40.7197 9.39419 41.1849 9.20155 41.5279 8.85858C41.8709 8.51561 42.0635 8.05048 42.0635 7.56534C42.0635 7.08033 41.8709 6.6152 41.5279 6.27223C41.1849 5.92926 40.7197 5.73655 40.2347 5.73655ZM34.7481 5.73655C34.2631 5.73655 33.7978 5.92926 33.4549 6.27223C33.1119 6.6152 32.9193 7.08033 32.9193 7.56534C32.9193 8.05048 33.1119 8.51561 33.4549 8.85858C33.7978 9.20155 34.2631 9.39419 34.7481 9.39419C35.2331 9.39419 35.6984 9.20155 36.0414 8.85858C36.3843 8.51561 36.577 8.05048 36.577 7.56534C36.577 7.08033 36.3843 6.6152 36.0414 6.27223C35.6984 5.92926 35.2331 5.73655 34.7481 5.73655ZM29.2616 5.73655C28.7766 5.73655 28.3113 5.92926 27.9683 6.27223C27.6254 6.6152 27.4327 7.08033 27.4327 7.56534C27.4327 8.05048 27.6254 8.51561 27.9683 8.85858C28.3113 9.20155 28.7766 9.39419 29.2616 9.39419C29.7466 9.39419 30.2118 9.20155 30.5548 8.85858C30.8978 8.51561 31.0904 8.05048 31.0904 7.56534C31.0904 7.08033 30.8978 6.6152 30.5548 6.27223C30.2118 5.92926 29.7466 5.73655 29.2616 5.73655ZM23.775 5.73655C23.29 5.73655 22.8248 5.92926 22.4818 6.27223C22.1388 6.6152 21.9462 7.08033 21.9462 7.56534C21.9462 8.05048 22.1388 8.51561 22.4818 8.85858C22.8248 9.20155 23.29 9.39419 23.775 9.39419C24.26 9.39419 24.7253 9.20155 25.0683 8.85858C25.4112 8.51561 25.6039 8.05048 25.6039 7.56534C25.6039 7.08033 25.4112 6.6152 25.0683 6.27223C24.7253 5.92926 24.26 5.73655 23.775 5.73655ZM18.2885 5.73655C17.8035 5.73655 17.3382 5.92926 16.9952 6.27223C16.6523 6.6152 16.4596 7.08033 16.4596 7.56534C16.4596 8.05048 16.6523 8.51561 16.9952 8.85858C17.3382 9.20155 17.8035 9.39419 18.2885 9.39419C18.7735 9.39419 19.2388 9.20155 19.5817 8.85858C19.9247 8.51561 20.1173 8.05048 20.1173 7.56534C20.1173 7.08033 19.9247 6.6152 19.5817 6.27223C19.2388 5.92926 18.7735 5.73655 18.2885 5.73655ZM12.8019 5.73655C12.3169 5.73655 11.8517 5.92926 11.5087 6.27223C11.1657 6.6152 10.9731 7.08033 10.9731 7.56534C10.9731 8.05048 11.1657 8.51561 11.5087 8.85858C11.8517 9.20155 12.3169 9.39419 12.8019 9.39419C13.2869 9.39419 13.7522 9.20155 14.0952 8.85858C14.4381 8.51561 14.6308 8.05048 14.6308 7.56534C14.6308 7.08033 14.4381 6.6152 14.0952 6.27223C13.7522 5.92926 13.2869 5.73655 12.8019 5.73655ZM7.31539 5.73655C6.83038 5.73655 6.36517 5.92926 6.0222 6.27223C5.67923 6.6152 5.48655 7.08033 5.48655 7.56534C5.48655 8.05048 5.67923 8.51561 6.0222 8.85858C6.36517 9.20155 6.83038 9.39419 7.31539 9.39419C7.8004 9.39419 8.26566 9.20155 8.60863 8.85858C8.9516 8.51561 9.14424 8.05048 9.14424 7.56534C9.14424 7.08033 8.9516 6.6152 8.60863 6.27223C8.26566 5.92926 7.8004 5.73655 7.31539 5.73655ZM40.2347 11.223C39.7497 11.223 39.2844 11.4158 38.9414 11.7588C38.5985 12.1017 38.4058 12.5669 38.4058 13.0519C38.4058 13.537 38.5985 14.0022 38.9414 14.3451C39.2844 14.6881 39.7497 14.8807 40.2347 14.8807C40.7197 14.8807 41.1849 14.6881 41.5279 14.3451C41.8709 14.0022 42.0635 13.537 42.0635 13.0519C42.0635 12.5669 41.8709 12.1017 41.5279 11.7588C41.1849 11.4158 40.7197 11.223 40.2347 11.223ZM34.7481 11.223C34.2631 11.223 33.7978 11.4158 33.4549 11.7588C33.1119 12.1017 32.9193 12.5669 32.9193 13.0519C32.9193 13.537 33.1119 14.0022 33.4549 14.3451C33.7978 14.6881 34.2631 14.8807 34.7481 14.8807C35.2331 14.8807 35.6984 14.6881 36.0414 14.3451C36.3843 14.0022 36.577 13.537 36.577 13.0519C36.577 12.5669 36.3843 12.1017 36.0414 11.7588C35.6984 11.4158 35.2331 11.223 34.7481 11.223ZM29.2616 11.223C28.7766 11.223 28.3113 11.4158 27.9683 11.7588C27.6254 12.1017 27.4327 12.5669 27.4327 13.0519C27.4327 13.537 27.6254 14.0022 27.9683 14.3451C28.3113 14.6881 28.7766 14.8807 29.2616 14.8807C29.7466 14.8807 30.2118 14.6881 30.5548 14.3451C30.8978 14.0022 31.0904 13.537 31.0904 13.0519C31.0904 12.5669 30.8978 12.1017 30.5548 11.7588C30.2118 11.4158 29.7466 11.223 29.2616 11.223ZM23.775 11.223C23.29 11.223 22.8248 11.4158 22.4818 11.7588C22.1388 12.1017 21.9462 12.5669 21.9462 13.0519C21.9462 13.537 22.1388 14.0022 22.4818 14.3451C22.8248 14.6881 23.29 14.8807 23.775 14.8807C24.26 14.8807 24.7253 14.6881 25.0683 14.3451C25.4112 14.0022 25.6039 13.537 25.6039 13.0519C25.6039 12.5669 25.4112 12.1017 25.0683 11.7588C24.7253 11.4158 24.26 11.223 23.775 11.223ZM18.2885 11.223C17.8035 11.223 17.3382 11.4158 16.9952 11.7588C16.6523 12.1017 16.4596 12.5669 16.4596 13.0519C16.4596 13.537 16.6523 14.0022 16.9952 14.3451C17.3382 14.6881 17.8035 14.8807 18.2885 14.8807C18.7735 14.8807 19.2388 14.6881 19.5817 14.3451C19.9247 14.0022 20.1173 13.537 20.1173 13.0519C20.1173 12.5669 19.9247 12.1017 19.5817 11.7588C19.2388 11.4158 18.7735 11.223 18.2885 11.223ZM7.31539 11.223C6.83038 11.223 6.36517 11.4158 6.0222 11.7588C5.67923 12.1017 5.48655 12.5669 5.48655 13.0519C5.48655 13.537 5.67923 14.0022 6.0222 14.3451C6.36517 14.6881 6.83038 14.8807 7.31539 14.8807C7.8004 14.8807 8.26566 14.6881 8.60863 14.3451C8.9516 14.0022 9.14424 13.537 9.14424 13.0519C9.14424 12.5669 8.9516 12.1017 8.60863 11.7588C8.26566 11.4158 7.8004 11.223 7.31539 11.223ZM1.82885 11.223C1.34381 11.223 0.878628 11.4158 0.535658 11.7588C0.192688 12.1017 0 12.5669 0 13.0519C0 13.537 0.192688 14.0022 0.535658 14.3451C0.878628 14.6881 1.34381 14.8807 1.82885 14.8807C2.31388 14.8807 2.77907 14.6881 3.12204 14.3451C3.46501 14.0022 3.6577 13.537 3.6577 13.0519C3.6577 12.5669 3.46501 12.1017 3.12204 11.7588C2.77907 11.4158 2.31388 11.223 1.82885 11.223ZM40.2347 16.7096C39.7497 16.7096 39.2844 16.9023 38.9414 17.2453C38.5985 17.5883 38.4058 18.0534 38.4058 18.5384C38.4058 19.0236 38.5985 19.4887 38.9414 19.8317C39.2844 20.1746 39.7497 20.3673 40.2347 20.3673C40.7197 20.3673 41.1849 20.1746 41.5279 19.8317C41.8709 19.4887 42.0635 19.0236 42.0635 18.5384C42.0635 18.0534 41.8709 17.5883 41.5279 17.2453C41.1849 16.9023 40.7197 16.7096 40.2347 16.7096ZM34.7481 16.7096C34.2631 16.7096 33.7978 16.9023 33.4549 17.2453C33.1119 17.5883 32.9193 18.0534 32.9193 18.5384C32.9193 19.0236 33.1119 19.4887 33.4549 19.8317C33.7978 20.1746 34.2631 20.3673 34.7481 20.3673C35.2331 20.3673 35.6984 20.1746 36.0414 19.8317C36.3843 19.4887 36.577 19.0236 36.577 18.5384C36.577 18.0534 36.3843 17.5883 36.0414 17.2453C35.6984 16.9023 35.2331 16.7096 34.7481 16.7096ZM29.2616 16.7096C28.7766 16.7096 28.3113 16.9023 27.9683 17.2453C27.6254 17.5883 27.4327 18.0534 27.4327 18.5384C27.4327 19.0236 27.6254 19.4887 27.9683 19.8317C28.3113 20.1746 28.7766 20.3673 29.2616 20.3673C29.7466 20.3673 30.2118 20.1746 30.5548 19.8317C30.8978 19.4887 31.0904 19.0236 31.0904 18.5384C31.0904 18.0534 30.8978 17.5883 30.5548 17.2453C30.2118 16.9023 29.7466 16.7096 29.2616 16.7096ZM23.775 16.7096C23.29 16.7096 22.8248 16.9023 22.4818 17.2453C22.1388 17.5883 21.9462 18.0534 21.9462 18.5384C21.9462 19.0236 22.1388 19.4887 22.4818 19.8317C22.8248 20.1746 23.29 20.3673 23.775 20.3673C24.26 20.3673 24.7253 20.1746 25.0683 19.8317C25.4112 19.4887 25.6039 19.0236 25.6039 18.5384C25.6039 18.0534 25.4112 17.5883 25.0683 17.2453C24.7253 16.9023 24.26 16.7096 23.775 16.7096ZM18.2885 16.7096C17.8035 16.7096 17.3382 16.9023 16.9952 17.2453C16.6523 17.5883 16.4596 18.0534 16.4596 18.5384C16.4596 19.0236 16.6523 19.4887 16.9952 19.8317C17.3382 20.1746 17.8035 20.3673 18.2885 20.3673C18.7735 20.3673 19.2388 20.1746 19.5817 19.8317C19.9247 19.4887 20.1173 19.0236 20.1173 18.5384C20.1173 18.0534 19.9247 17.5883 19.5817 17.2453C19.2388 16.9023 18.7735 16.7096 18.2885 16.7096ZM12.8019 16.7096C12.3169 16.7096 11.8517 16.9023 11.5087 17.2453C11.1657 17.5883 10.9731 18.0534 10.9731 18.5384C10.9731 19.0236 11.1657 19.4887 11.5087 19.8317C11.8517 20.1746 12.3169 20.3673 12.8019 20.3673C13.2869 20.3673 13.7522 20.1746 14.0952 19.8317C14.4381 19.4887 14.6308 19.0236 14.6308 18.5384C14.6308 18.0534 14.4381 17.5883 14.0952 17.2453C13.7522 16.9023 13.2869 16.7096 12.8019 16.7096ZM7.31539 16.7096C6.83038 16.7096 6.36517 16.9023 6.0222 17.2453C5.67923 17.5883 5.48655 18.0534 5.48655 18.5384C5.48655 19.0236 5.67923 19.4887 6.0222 19.8317C6.36517 20.1746 6.83038 20.3673 7.31539 20.3673C7.8004 20.3673 8.26566 20.1746 8.60863 19.8317C8.9516 19.4887 9.14424 19.0236 9.14424 18.5384C9.14424 18.0534 8.9516 17.5883 8.60863 17.2453C8.26566 16.9023 7.8004 16.7096 7.31539 16.7096ZM40.2347 22.1961C39.7497 22.1961 39.2844 22.3889 38.9414 22.7319C38.5985 23.0748 38.4058 23.54 38.4058 24.025C38.4058 24.5101 38.5985 24.9753 38.9414 25.3182C39.2844 25.6612 39.7497 25.8538 40.2347 25.8538C40.7197 25.8538 41.1849 25.6612 41.5279 25.3182C41.8709 24.9753 42.0635 24.5101 42.0635 24.025C42.0635 23.54 41.8709 23.0748 41.5279 22.7319C41.1849 22.3889 40.7197 22.1961 40.2347 22.1961ZM34.7481 22.1961C34.2631 22.1961 33.7978 22.3889 33.4549 22.7319C33.1119 23.0748 32.9193 23.54 32.9193 24.025C32.9193 24.5101 33.1119 24.9753 33.4549 25.3182C33.7978 25.6612 34.2631 25.8538 34.7481 25.8538C35.2331 25.8538 35.6984 25.6612 36.0414 25.3182C36.3843 24.9753 36.577 24.5101 36.577 24.025C36.577 23.54 36.3843 23.0748 36.0414 22.7319C35.6984 22.3889 35.2331 22.1961 34.7481 22.1961ZM29.2616 33.1692C28.7766 33.1692 28.3113 33.362 27.9683 33.705C27.6254 34.0479 27.4327 34.5131 27.4327 34.9981C27.4327 35.4832 27.6254 35.9483 27.9683 36.2913C28.3113 36.6343 28.7766 36.8269 29.2616 36.8269C29.7466 36.8269 30.2118 36.6343 30.5548 36.2913C30.8978 35.9483 31.0904 35.4832 31.0904 34.9981C31.0904 34.5131 30.8978 34.0479 30.5548 33.705C30.2118 33.362 29.7466 33.1692 29.2616 33.1692ZM23.775 33.1692C23.29 33.1692 22.8248 33.362 22.4818 33.705C22.1388 34.0479 21.9462 34.5131 21.9462 34.9981C21.9462 35.4832 22.1388 35.9483 22.4818 36.2913C22.8248 36.6343 23.29 36.8269 23.775 36.8269C24.26 36.8269 24.7253 36.6343 25.0683 36.2913C25.4112 35.9483 25.6039 35.4832 25.6039 34.9981C25.6039 34.5131 25.4112 34.0479 25.0683 33.705C24.7253 33.362 24.26 33.1692 23.775 33.1692ZM18.2885 22.1961C17.8035 22.1961 17.3382 22.3889 16.9952 22.7319C16.6523 23.0748 16.4596 23.54 16.4596 24.025C16.4596 24.5101 16.6523 24.9753 16.9952 25.3182C17.3382 25.6612 17.8035 25.8538 18.2885 25.8538C18.7735 25.8538 19.2388 25.6612 19.5817 25.3182C19.9247 24.9753 20.1173 24.5101 20.1173 24.025C20.1173 23.54 19.9247 23.0748 19.5817 22.7319C19.2388 22.3889 18.7735 22.1961 18.2885 22.1961ZM12.8019 22.1961C12.3169 22.1961 11.8517 22.3889 11.5087 22.7319C11.1657 23.0748 10.9731 23.54 10.9731 24.025C10.9731 24.5101 11.1657 24.9753 11.5087 25.3182C11.8517 25.6612 12.3169 25.8538 12.8019 25.8538C13.2869 25.8538 13.7522 25.6612 14.0952 25.3182C14.4381 24.9753 14.6308 24.5101 14.6308 24.025C14.6308 23.54 14.4381 23.0748 14.0952 22.7319C13.7522 22.3889 13.2869 22.1961 12.8019 22.1961ZM7.31539 22.1961C6.83038 22.1961 6.36517 22.3889 6.0222 22.7319C5.67923 23.0748 5.48655 23.54 5.48655 24.025C5.48655 24.5101 5.67923 24.9753 6.0222 25.3182C6.36517 25.6612 6.83038 25.8538 7.31539 25.8538C7.8004 25.8538 8.26566 25.6612 8.60863 25.3182C8.9516 24.9753 9.14424 24.5101 9.14424 24.025C9.14424 23.54 8.9516 23.0748 8.60863 22.7319C8.26566 22.3889 7.8004 22.1961 7.31539 22.1961ZM1.82885 22.1961C1.34381 22.1961 0.878628 22.3889 0.535658 22.7319C0.192688 23.0748 0 23.54 0 24.025C0 24.5101 0.192688 24.9753 0.535658 25.3182C0.878628 25.6612 1.34381 25.8538 1.82885 25.8538C2.31388 25.8538 2.77907 25.6612 3.12204 25.3182C3.46501 24.9753 3.6577 24.5101 3.6577 24.025C3.6577 23.54 3.46501 23.0748 3.12204 22.7319C2.77907 22.3889 2.31388 22.1961 1.82885 22.1961ZM40.2347 27.6827C39.7497 27.6827 39.2844 27.8754 38.9414 28.2184C38.5985 28.5614 38.4058 29.0265 38.4058 29.5115C38.4058 29.9967 38.5985 30.4618 38.9414 30.8048C39.2844 31.1477 39.7497 31.3404 40.2347 31.3404C40.7197 31.3404 41.1849 31.1477 41.5279 30.8048C41.8709 30.4618 42.0635 29.9967 42.0635 29.5115C42.0635 29.0265 41.8709 28.5614 41.5279 28.2184C41.1849 27.8754 40.7197 27.6827 40.2347 27.6827ZM34.7481 27.6827C34.2631 27.6827 33.7978 27.8754 33.4549 28.2184C33.1119 28.5614 32.9193 29.0265 32.9193 29.5115C32.9193 29.9967 33.1119 30.4618 33.4549 30.8048C33.7978 31.1477 34.2631 31.3404 34.7481 31.3404C35.2331 31.3404 35.6984 31.1477 36.0414 30.8048C36.3843 30.4618 36.577 29.9967 36.577 29.5115C36.577 29.0265 36.3843 28.5614 36.0414 28.2184C35.6984 27.8754 35.2331 27.6827 34.7481 27.6827ZM18.2885 27.6827C17.8035 27.6827 17.3382 27.8754 16.9952 28.2184C16.6523 28.5614 16.4596 29.0265 16.4596 29.5115C16.4596 29.9967 16.6523 30.4618 16.9952 30.8048C17.3382 31.1477 17.8035 31.3404 18.2885 31.3404C18.7735 31.3404 19.2388 31.1477 19.5817 30.8048C19.9247 30.4618 20.1173 29.9967 20.1173 29.5115C20.1173 29.0265 19.9247 28.5614 19.5817 28.2184C19.2388 27.8754 18.7735 27.6827 18.2885 27.6827ZM12.8019 27.6827C12.3169 27.6827 11.8517 27.8754 11.5087 28.2184C11.1657 28.5614 10.9731 29.0265 10.9731 29.5115C10.9731 29.9967 11.1657 30.4618 11.5087 30.8048C11.8517 31.1477 12.3169 31.3404 12.8019 31.3404C13.2869 31.3404 13.7522 31.1477 14.0952 30.8048C14.4381 30.4618 14.6308 29.9967 14.6308 29.5115C14.6308 29.0265 14.4381 28.5614 14.0952 28.2184C13.7522 27.8754 13.2869 27.6827 12.8019 27.6827ZM7.31539 27.6827C6.83038 27.6827 6.36517 27.8754 6.0222 28.2184C5.67923 28.5614 5.48655 29.0265 5.48655 29.5115C5.48655 29.9967 5.67923 30.4618 6.0222 30.8048C6.36517 31.1477 6.83038 31.3404 7.31539 31.3404C7.8004 31.3404 8.26566 31.1477 8.60863 30.8048C8.9516 30.4618 9.14424 29.9967 9.14424 29.5115C9.14424 29.0265 8.9516 28.5614 8.60863 28.2184C8.26566 27.8754 7.8004 27.6827 7.31539 27.6827ZM40.2347 33.1692C39.7497 33.1692 39.2844 33.362 38.9414 33.705C38.5985 34.0479 38.4058 34.5131 38.4058 34.9981C38.4058 35.4832 38.5985 35.9483 38.9414 36.2913C39.2844 36.6343 39.7497 36.8269 40.2347 36.8269C40.7197 36.8269 41.1849 36.6343 41.5279 36.2913C41.8709 35.9483 42.0635 35.4832 42.0635 34.9981C42.0635 34.5131 41.8709 34.0479 41.5279 33.705C41.1849 33.362 40.7197 33.1692 40.2347 33.1692ZM34.7481 33.1692C34.2631 33.1692 33.7978 33.362 33.4549 33.705C33.1119 34.0479 32.9193 34.5131 32.9193 34.9981C32.9193 35.4832 33.1119 35.9483 33.4549 36.2913C33.7978 36.6343 34.2631 36.8269 34.7481 36.8269C35.2331 36.8269 35.6984 36.6343 36.0414 36.2913C36.3843 35.9483 36.577 35.4832 36.577 34.9981C36.577 34.5131 36.3843 34.0479 36.0414 33.705C35.6984 33.362 35.2331 33.1692 34.7481 33.1692ZM18.2885 33.1692C17.8035 33.1692 17.3382 33.362 16.9952 33.705C16.6523 34.0479 16.4596 34.5131 16.4596 34.9981C16.4596 35.4832 16.6523 35.9483 16.9952 36.2913C17.3382 36.6343 17.8035 36.8269 18.2885 36.8269C18.7735 36.8269 19.2388 36.6343 19.5817 36.2913C19.9247 35.9483 20.1173 35.4832 20.1173 34.9981C20.1173 34.5131 19.9247 34.0479 19.5817 33.705C19.2388 33.362 18.7735 33.1692 18.2885 33.1692ZM12.8019 33.1692C12.3169 33.1692 11.8517 33.362 11.5087 33.705C11.1657 34.0479 10.9731 34.5131 10.9731 34.9981C10.9731 35.4832 11.1657 35.9483 11.5087 36.2913C11.8517 36.6343 12.3169 36.8269 12.8019 36.8269C13.2869 36.8269 13.7522 36.6343 14.0952 36.2913C14.4381 35.9483 14.6308 35.4832 14.6308 34.9981C14.6308 34.5131 14.4381 34.0479 14.0952 33.705C13.7522 33.362 13.2869 33.1692 12.8019 33.1692ZM7.31539 33.1692C6.83038 33.1692 6.36517 33.362 6.0222 33.705C5.67923 34.0479 5.48655 34.5131 5.48655 34.9981C5.48655 35.4832 5.67923 35.9483 6.0222 36.2913C6.36517 36.6343 6.83038 36.8269 7.31539 36.8269C7.8004 36.8269 8.26566 36.6343 8.60863 36.2913C8.9516 35.9483 9.14424 35.4832 9.14424 34.9981C9.14424 34.5131 8.9516 34.0479 8.60863 33.705C8.26566 33.362 7.8004 33.1692 7.31539 33.1692ZM1.82885 33.1692C1.34381 33.1692 0.878628 33.362 0.535658 33.705C0.192688 34.0479 0 34.5131 0 34.9981C0 35.4832 0.192688 35.9483 0.535658 36.2913C0.878628 36.6343 1.34381 36.8269 1.82885 36.8269C2.31388 36.8269 2.77907 36.6343 3.12204 36.2913C3.46501 35.9483 3.6577 35.4832 3.6577 34.9981C3.6577 34.5131 3.46501 34.0479 3.12204 33.705C2.77907 33.362 2.31388 33.1692 1.82885 33.1692ZM40.2347 38.6558C39.7497 38.6558 39.2844 38.8485 38.9414 39.1915C38.5985 39.5345 38.4058 39.9996 38.4058 40.4846C38.4058 40.9697 38.5985 41.4349 38.9414 41.7779C39.2844 42.1208 39.7497 42.3135 40.2347 42.3135C40.7197 42.3135 41.1849 42.1208 41.5279 41.7779C41.8709 41.4349 42.0635 40.9697 42.0635 40.4846C42.0635 39.9996 41.8709 39.5345 41.5279 39.1915C41.1849 38.8485 40.7197 38.6558 40.2347 38.6558ZM45.7212 11.223C45.2362 11.223 44.7709 11.4158 44.428 11.7588C44.085 12.1017 43.8924 12.5669 43.8924 13.0519C43.8924 13.537 44.085 14.0022 44.428 14.3451C44.7709 14.6881 45.2362 14.8807 45.7212 14.8807C46.2062 14.8807 46.6715 14.6881 47.0144 14.3451C47.3574 14.0022 47.5501 13.537 47.5501 13.0519C47.5501 12.5669 47.3574 12.1017 47.0144 11.7588C46.6715 11.4158 46.2062 11.223 45.7212 11.223ZM45.7212 22.1961C45.2362 22.1961 44.7709 22.3889 44.428 22.7319C44.085 23.0748 43.8924 23.54 43.8924 24.025C43.8924 24.5101 44.085 24.9753 44.428 25.3182C44.7709 25.6612 45.2362 25.8538 45.7212 25.8538C46.2062 25.8538 46.6715 25.6612 47.0144 25.3182C47.3574 24.9753 47.5501 24.5101 47.5501 24.025C47.5501 23.54 47.3574 23.0748 47.0144 22.7319C46.6715 22.3889 46.2062 22.1961 45.7212 22.1961ZM45.7212 33.1692C45.2362 33.1692 44.7709 33.362 44.428 33.705C44.085 34.0479 43.8924 34.5131 43.8924 34.9981C43.8924 35.4832 44.085 35.9483 44.428 36.2913C44.7709 36.6343 45.2362 36.8269 45.7212 36.8269C46.2062 36.8269 46.6715 36.6343 47.0144 36.2913C47.3574 35.9483 47.5501 35.4832 47.5501 34.9981C47.5501 34.5131 47.3574 34.0479 47.0144 33.705C46.6715 33.362 46.2062 33.1692 45.7212 33.1692ZM34.7481 38.6558C34.2631 38.6558 33.7978 38.8485 33.4549 39.1915C33.1119 39.5345 32.9193 39.9996 32.9193 40.4846C32.9193 40.9697 33.1119 41.4349 33.4549 41.7779C33.7978 42.1208 34.2631 42.3135 34.7481 42.3135C35.2331 42.3135 35.6984 42.1208 36.0414 41.7779C36.3843 41.4349 36.577 40.9697 36.577 40.4846C36.577 39.9996 36.3843 39.5345 36.0414 39.1915C35.6984 38.8485 35.2331 38.6558 34.7481 38.6558ZM29.2616 38.6558C28.7766 38.6558 28.3113 38.8485 27.9683 39.1915C27.6254 39.5345 27.4327 39.9996 27.4327 40.4846C27.4327 40.9697 27.6254 41.4349 27.9683 41.7779C28.3113 42.1208 28.7766 42.3135 29.2616 42.3135C29.7466 42.3135 30.2118 42.1208 30.5548 41.7779C30.8978 41.4349 31.0904 40.9697 31.0904 40.4846C31.0904 39.9996 30.8978 39.5345 30.5548 39.1915C30.2118 38.8485 29.7466 38.6558 29.2616 38.6558ZM23.775 38.6558C23.29 38.6558 22.8248 38.8485 22.4818 39.1915C22.1388 39.5345 21.9462 39.9996 21.9462 40.4846C21.9462 40.9697 22.1388 41.4349 22.4818 41.7779C22.8248 42.1208 23.29 42.3135 23.775 42.3135C24.26 42.3135 24.7253 42.1208 25.0683 41.7779C25.4112 41.4349 25.6039 40.9697 25.6039 40.4846C25.6039 39.9996 25.4112 39.5345 25.0683 39.1915C24.7253 38.8485 24.26 38.6558 23.775 38.6558ZM18.2885 38.6558C17.8035 38.6558 17.3382 38.8485 16.9952 39.1915C16.6523 39.5345 16.4596 39.9996 16.4596 40.4846C16.4596 40.9697 16.6523 41.4349 16.9952 41.7779C17.3382 42.1208 17.8035 42.3135 18.2885 42.3135C18.7735 42.3135 19.2388 42.1208 19.5817 41.7779C19.9247 41.4349 20.1173 40.9697 20.1173 40.4846C20.1173 39.9996 19.9247 39.5345 19.5817 39.1915C19.2388 38.8485 18.7735 38.6558 18.2885 38.6558ZM12.8019 38.6558C12.3169 38.6558 11.8517 38.8485 11.5087 39.1915C11.1657 39.5345 10.9731 39.9996 10.9731 40.4846C10.9731 40.9697 11.1657 41.4349 11.5087 41.7779C11.8517 42.1208 12.3169 42.3135 12.8019 42.3135C13.2869 42.3135 13.7522 42.1208 14.0952 41.7779C14.4381 41.4349 14.6308 40.9697 14.6308 40.4846C14.6308 39.9996 14.4381 39.5345 14.0952 39.1915C13.7522 38.8485 13.2869 38.6558 12.8019 38.6558ZM7.31539 38.6558C6.83038 38.6558 6.36517 38.8485 6.0222 39.1915C5.67923 39.5345 5.48655 39.9996 5.48655 40.4846C5.48655 40.9697 5.67923 41.4349 6.0222 41.7779C6.36517 42.1208 6.83038 42.3135 7.31539 42.3135C7.8004 42.3135 8.26566 42.1208 8.60863 41.7779C8.9516 41.4349 9.14424 40.9697 9.14424 40.4846C9.14424 39.9996 8.9516 39.5345 8.60863 39.1915C8.26566 38.8485 7.8004 38.6558 7.31539 38.6558ZM34.7481 44.1423C34.2631 44.1423 33.7978 44.3351 33.4549 44.678C33.1119 45.021 32.9193 45.4861 32.9193 45.9712C32.9193 46.4563 33.1119 46.9214 33.4549 47.2644C33.7978 47.6074 34.2631 47.8 34.7481 47.8C35.2331 47.8 35.6984 47.6074 36.0414 47.2644C36.3843 46.9214 36.577 46.4563 36.577 45.9712C36.577 45.4861 36.3843 45.021 36.0414 44.678C35.6984 44.3351 35.2331 44.1423 34.7481 44.1423ZM23.775 44.1423C23.29 44.1423 22.8248 44.3351 22.4818 44.678C22.1388 45.021 21.9462 45.4861 21.9462 45.9712C21.9462 46.4563 22.1388 46.9214 22.4818 47.2644C22.8248 47.6074 23.29 47.8 23.775 47.8C24.26 47.8 24.7253 47.6074 25.0683 47.2644C25.4112 46.9214 25.6039 46.4563 25.6039 45.9712C25.6039 45.4861 25.4112 45.021 25.0683 44.678C24.7253 44.3351 24.26 44.1423 23.775 44.1423ZM12.8019 44.1423C12.3169 44.1423 11.8517 44.3351 11.5087 44.678C11.1657 45.021 10.9731 45.4861 10.9731 45.9712C10.9731 46.4563 11.1657 46.9214 11.5087 47.2644C11.8517 47.6074 12.3169 47.8 12.8019 47.8C13.2869 47.8 13.7522 47.6074 14.0952 47.2644C14.4381 46.9214 14.6308 46.4563 14.6308 45.9712C14.6308 45.4861 14.4381 45.021 14.0952 44.678C13.7522 44.3351 13.2869 44.1423 12.8019 44.1423Z" fill="white"/>
</svg>
