<svg width="42" height="42" viewBox="0 0 42 42" fill="none" xmlns="http://www.w3.org/2000/svg">
<path d="M5.25 19.6875C4.90191 19.6875 4.56806 19.8258 4.32193 20.072C4.07579 20.3181 3.9375 20.6519 3.9375 21C3.9375 21.3481 4.07579 21.682 4.32193 21.9281C4.56806 22.1742 4.90191 22.3125 5.25 22.3125C5.5981 22.3125 5.93194 22.1742 6.17808 21.9281C6.42422 21.682 6.56251 21.3481 6.56251 21C6.56251 20.6519 6.42422 20.3181 6.17808 20.072C5.93194 19.8258 5.5981 19.6875 5.25 19.6875ZM1.3125 19.6875C0.964408 19.6875 0.630564 19.8258 0.384423 20.072C0.138281 20.3181 0 20.6519 0 21C0 21.3481 0.138281 21.682 0.384423 21.9281C0.630564 22.1742 0.964408 22.3125 1.3125 22.3125C1.66059 22.3125 1.99444 22.1742 2.24058 21.9281C2.48672 21.682 2.625 21.3481 2.625 21C2.625 20.6519 2.48672 20.3181 2.24058 20.072C1.99444 19.8258 1.66059 19.6875 1.3125 19.6875ZM9.18751 15.75C8.83943 15.75 8.50557 15.8883 8.25943 16.1345C8.01329 16.3806 7.87501 16.7144 7.87501 17.0625C7.87501 17.4106 8.01329 17.7445 8.25943 17.9906C8.50557 18.2367 8.83943 18.375 9.18751 18.375C9.53558 18.375 9.86948 18.2367 10.1156 17.9906C10.3618 17.7445 10.5 17.4106 10.5 17.0625C10.5 16.7144 10.3618 16.3806 10.1156 16.1345C9.86948 15.8883 9.53558 15.75 9.18751 15.75ZM9.18751 19.6875C8.83943 19.6875 8.50557 19.8258 8.25943 20.072C8.01329 20.3181 7.87501 20.6519 7.87501 21C7.87501 21.3481 8.01329 21.682 8.25943 21.9281C8.50557 22.1742 8.83943 22.3125 9.18751 22.3125C9.53558 22.3125 9.86948 22.1742 10.1156 21.9281C10.3618 21.682 10.5 21.3481 10.5 21C10.5 20.6519 10.3618 20.3181 10.1156 20.072C9.86948 19.8258 9.53558 19.6875 9.18751 19.6875ZM13.125 19.6875C12.7769 19.6875 12.443 19.8258 12.1969 20.072C11.9508 20.3181 11.8125 20.6519 11.8125 21C11.8125 21.3481 11.9508 21.682 12.1969 21.9281C12.443 22.1742 12.7769 22.3125 13.125 22.3125C13.4731 22.3125 13.807 22.1742 14.0531 21.9281C14.2993 21.682 14.4375 21.3481 14.4375 21C14.4375 20.6519 14.2993 20.3181 14.0531 20.072C13.807 19.8258 13.4731 19.6875 13.125 19.6875ZM9.18751 23.625C8.83943 23.625 8.50557 23.7633 8.25943 24.0095C8.01329 24.2556 7.87501 24.5894 7.87501 24.9375C7.87501 25.2856 8.01329 25.6195 8.25943 25.8656C8.50557 26.1117 8.83943 26.25 9.18751 26.25C9.53558 26.25 9.86948 26.1117 10.1156 25.8656C10.3618 25.6195 10.5 25.2856 10.5 24.9375C10.5 24.5894 10.3618 24.2556 10.1156 24.0095C9.86948 23.7633 9.53558 23.625 9.18751 23.625ZM5.25 27.5625C4.90191 27.5625 4.56806 27.7008 4.32193 27.947C4.07579 28.1931 3.9375 28.5269 3.9375 28.875C3.9375 29.2232 4.07579 29.557 4.32193 29.8031C4.56806 30.0492 4.90191 30.1875 5.25 30.1875C5.5981 30.1875 5.93194 30.0492 6.17808 29.8031C6.42422 29.557 6.56251 29.2232 6.56251 28.875C6.56251 28.5269 6.42422 28.1931 6.17808 27.947C5.93194 27.7008 5.5981 27.5625 5.25 27.5625ZM5.25 11.8125C4.90191 11.8125 4.56806 11.9508 4.32193 12.1969C4.07579 12.4431 3.9375 12.7769 3.9375 13.125C3.9375 13.4731 4.07579 13.807 4.32193 14.0531C4.56806 14.2992 4.90191 14.4375 5.25 14.4375C5.5981 14.4375 5.93194 14.2992 6.17808 14.0531C6.42422 13.807 6.56251 13.4731 6.56251 13.125C6.56251 12.7769 6.42422 12.4431 6.17808 12.1969C5.93194 11.9508 5.5981 11.8125 5.25 11.8125ZM36.75 19.6875C36.402 19.6875 36.0681 19.8258 35.8219 20.072C35.5758 20.3181 35.4375 20.6519 35.4375 21C35.4375 21.3481 35.5758 21.682 35.8219 21.9281C36.0681 22.1742 36.402 22.3125 36.75 22.3125C37.0981 22.3125 37.432 22.1742 37.6781 21.9281C37.9243 21.682 38.0625 21.3481 38.0625 21C38.0625 20.6519 37.9243 20.3181 37.6781 20.072C37.432 19.8258 37.0981 19.6875 36.75 19.6875ZM40.6875 19.6875C40.3395 19.6875 40.0056 19.8258 39.7594 20.072C39.5133 20.3181 39.375 20.6519 39.375 21C39.375 21.3481 39.5133 21.682 39.7594 21.9281C40.0056 22.1742 40.3395 22.3125 40.6875 22.3125C41.0356 22.3125 41.3695 22.1742 41.6156 21.9281C41.8618 21.682 42 21.3481 42 21C42 20.6519 41.8618 20.3181 41.6156 20.072C41.3695 19.8258 41.0356 19.6875 40.6875 19.6875ZM32.8125 15.75C32.4645 15.75 32.1306 15.8883 31.8844 16.1345C31.6383 16.3806 31.5 16.7144 31.5 17.0625C31.5 17.4106 31.6383 17.7445 31.8844 17.9906C32.1306 18.2367 32.4645 18.375 32.8125 18.375C33.1606 18.375 33.4945 18.2367 33.7406 17.9906C33.9868 17.7445 34.125 17.4106 34.125 17.0625C34.125 16.7144 33.9868 16.3806 33.7406 16.1345C33.4945 15.8883 33.1606 15.75 32.8125 15.75ZM32.8125 19.6875C32.4645 19.6875 32.1306 19.8258 31.8844 20.072C31.6383 20.3181 31.5 20.6519 31.5 21C31.5 21.3481 31.6383 21.682 31.8844 21.9281C32.1306 22.1742 32.4645 22.3125 32.8125 22.3125C33.1606 22.3125 33.4945 22.1742 33.7406 21.9281C33.9868 21.682 34.125 21.3481 34.125 21C34.125 20.6519 33.9868 20.3181 33.7406 20.072C33.4945 19.8258 33.1606 19.6875 32.8125 19.6875ZM28.875 19.6875C28.5269 19.6875 28.193 19.8258 27.9469 20.072C27.7008 20.3181 27.5625 20.6519 27.5625 21C27.5625 21.3481 27.7008 21.682 27.9469 21.9281C28.193 22.1742 28.5269 22.3125 28.875 22.3125C29.2231 22.3125 29.557 22.1742 29.8031 21.9281C30.0493 21.682 30.1875 21.3481 30.1875 21C30.1875 20.6519 30.0493 20.3181 29.8031 20.072C29.557 19.8258 29.2231 19.6875 28.875 19.6875ZM21 19.6875C20.6519 19.6875 20.318 19.8258 20.0719 20.072C19.8258 20.3181 19.6875 20.6519 19.6875 21C19.6875 21.3481 19.8258 21.682 20.0719 21.9281C20.318 22.1742 20.6519 22.3125 21 22.3125C21.3481 22.3125 21.682 22.1742 21.9281 21.9281C22.1743 21.682 22.3125 21.3481 22.3125 21C22.3125 20.6519 22.1743 20.3181 21.9281 20.072C21.682 19.8258 21.3481 19.6875 21 19.6875ZM32.8125 23.625C32.4645 23.625 32.1306 23.7633 31.8844 24.0095C31.6383 24.2556 31.5 24.5894 31.5 24.9375C31.5 25.2856 31.6383 25.6195 31.8844 25.8656C32.1306 26.1117 32.4645 26.25 32.8125 26.25C33.1606 26.25 33.4945 26.1117 33.7406 25.8656C33.9868 25.6195 34.125 25.2856 34.125 24.9375C34.125 24.5894 33.9868 24.2556 33.7406 24.0095C33.4945 23.7633 33.1606 23.625 32.8125 23.625ZM36.75 27.5625C36.402 27.5625 36.0681 27.7008 35.8219 27.947C35.5758 28.1931 35.4375 28.5269 35.4375 28.875C35.4375 29.2232 35.5758 29.557 35.8219 29.8031C36.0681 30.0492 36.402 30.1875 36.75 30.1875C37.0981 30.1875 37.432 30.0492 37.6781 29.8031C37.9243 29.557 38.0625 29.2232 38.0625 28.875C38.0625 28.5269 37.9243 28.1931 37.6781 27.947C37.432 27.7008 37.0981 27.5625 36.75 27.5625ZM36.75 11.8125C36.402 11.8125 36.0681 11.9508 35.8219 12.1969C35.5758 12.4431 35.4375 12.7769 35.4375 13.125C35.4375 13.4731 35.5758 13.807 35.8219 14.0531C36.0681 14.2992 36.402 14.4375 36.75 14.4375C37.0981 14.4375 37.432 14.2992 37.6781 14.0531C37.9243 13.807 38.0625 13.4731 38.0625 13.125C38.0625 12.7769 37.9243 12.4431 37.6781 12.1969C37.432 11.9508 37.0981 11.8125 36.75 11.8125ZM21 3.9375C20.6519 3.9375 20.318 4.07578 20.0719 4.32193C19.8258 4.56806 19.6875 4.9019 19.6875 5.25001C19.6875 5.5981 19.8258 5.93194 20.0719 6.17808C20.318 6.42422 20.6519 6.56251 21 6.56251C21.3481 6.56251 21.682 6.42422 21.9281 6.17808C22.1743 5.93194 22.3125 5.5981 22.3125 5.25001C22.3125 4.9019 22.1743 4.56806 21.9281 4.32193C21.682 4.07578 21.3481 3.9375 21 3.9375ZM21 0C20.6519 0 20.318 0.138277 20.0719 0.384424C19.8258 0.630561 19.6875 0.9644 19.6875 1.3125C19.6875 1.66059 19.8258 1.99443 20.0719 2.24058C20.318 2.48672 20.6519 2.625 21 2.625C21.3481 2.625 21.682 2.48672 21.9281 2.24058C22.1743 1.99443 22.3125 1.66059 22.3125 1.3125C22.3125 0.9644 22.1743 0.630561 21.9281 0.384424C21.682 0.138277 21.3481 0 21 0ZM24.9375 7.87501C24.5894 7.87501 24.2555 8.01331 24.0094 8.25945C23.7633 8.50558 23.625 8.8394 23.625 9.18747C23.625 9.53564 23.7633 9.86945 24.0094 10.1156C24.2555 10.3617 24.5894 10.5 24.9375 10.5C25.2856 10.5 25.6195 10.3617 25.8656 10.1156C26.1118 9.86945 26.25 9.53564 26.25 9.18747C26.25 8.8394 26.1118 8.50558 25.8656 8.25945C25.6195 8.01331 25.2856 7.87501 24.9375 7.87501ZM21 7.87501C20.6519 7.87501 20.318 8.01331 20.0719 8.25945C19.8258 8.50558 19.6875 8.8394 19.6875 9.18747C19.6875 9.53564 19.8258 9.86945 20.0719 10.1156C20.318 10.3617 20.6519 10.5 21 10.5C21.3481 10.5 21.682 10.3617 21.9281 10.1156C22.1743 9.86945 22.3125 9.53564 22.3125 9.18747C22.3125 8.8394 22.1743 8.50558 21.9281 8.25945C21.682 8.01331 21.3481 7.87501 21 7.87501ZM21 11.8125C20.6519 11.8125 20.318 11.9508 20.0719 12.1969C19.8258 12.4431 19.6875 12.7769 19.6875 13.125C19.6875 13.4731 19.8258 13.807 20.0719 14.0531C20.318 14.2992 20.6519 14.4375 21 14.4375C21.3481 14.4375 21.682 14.2992 21.9281 14.0531C22.1743 13.807 22.3125 13.4731 22.3125 13.125C22.3125 12.7769 22.1743 12.4431 21.9281 12.1969C21.682 11.9508 21.3481 11.8125 21 11.8125ZM17.0625 7.87501C16.7144 7.87501 16.3805 8.01331 16.1344 8.25945C15.8883 8.50558 15.75 8.8394 15.75 9.18747C15.75 9.53564 15.8883 9.86945 16.1344 10.1156C16.3805 10.3617 16.7144 10.5 17.0625 10.5C17.4106 10.5 17.7445 10.3617 17.9906 10.1156C18.2368 9.86945 18.375 9.53564 18.375 9.18747C18.375 8.8394 18.2368 8.50558 17.9906 8.25945C17.7445 8.01331 17.4106 7.87501 17.0625 7.87501ZM13.125 3.9375C12.7769 3.9375 12.443 4.07578 12.1969 4.32193C11.9508 4.56806 11.8125 4.9019 11.8125 5.25001C11.8125 5.5981 11.9508 5.93194 12.1969 6.17808C12.443 6.42422 12.7769 6.56251 13.125 6.56251C13.4731 6.56251 13.807 6.42422 14.0531 6.17808C14.2993 5.93194 14.4375 5.5981 14.4375 5.25001C14.4375 4.9019 14.2993 4.56806 14.0531 4.32193C13.807 4.07578 13.4731 3.9375 13.125 3.9375ZM28.875 3.9375C28.5269 3.9375 28.193 4.07578 27.9469 4.32193C27.7008 4.56806 27.5625 4.9019 27.5625 5.25001C27.5625 5.5981 27.7008 5.93194 27.9469 6.17808C28.193 6.42422 28.5269 6.56251 28.875 6.56251C29.2231 6.56251 29.557 6.42422 29.8031 6.17808C30.0493 5.93194 30.1875 5.5981 30.1875 5.25001C30.1875 4.9019 30.0493 4.56806 29.8031 4.32193C29.557 4.07578 29.2231 3.9375 28.875 3.9375ZM21 35.4375C20.6519 35.4375 20.318 35.5758 20.0719 35.822C19.8258 36.0681 19.6875 36.4019 19.6875 36.75C19.6875 37.0982 19.8258 37.432 20.0719 37.6781C20.318 37.9242 20.6519 38.0625 21 38.0625C21.3481 38.0625 21.682 37.9242 21.9281 37.6781C22.1743 37.432 22.3125 37.0982 22.3125 36.75C22.3125 36.4019 22.1743 36.0681 21.9281 35.822C21.682 35.5758 21.3481 35.4375 21 35.4375ZM21 39.375C20.6519 39.375 20.318 39.5133 20.0719 39.7595C19.8258 40.0056 19.6875 40.3394 19.6875 40.6875C19.6875 41.0357 19.8258 41.3695 20.0719 41.6156C20.318 41.8617 20.6519 42 21 42C21.3481 42 21.682 41.8617 21.9281 41.6156C22.1743 41.3695 22.3125 41.0357 22.3125 40.6875C22.3125 40.3394 22.1743 40.0056 21.9281 39.7595C21.682 39.5133 21.3481 39.375 21 39.375ZM24.9375 31.5C24.5894 31.5 24.2555 31.6383 24.0094 31.8845C23.7633 32.1306 23.625 32.4644 23.625 32.8125C23.625 33.1607 23.7633 33.4945 24.0094 33.7406C24.2555 33.9867 24.5894 34.125 24.9375 34.125C25.2856 34.125 25.6195 33.9867 25.8656 33.7406C26.1118 33.4945 26.25 33.1607 26.25 32.8125C26.25 32.4644 26.1118 32.1306 25.8656 31.8845C25.6195 31.6383 25.2856 31.5 24.9375 31.5ZM21 31.5C20.6519 31.5 20.318 31.6383 20.0719 31.8845C19.8258 32.1306 19.6875 32.4644 19.6875 32.8125C19.6875 33.1607 19.8258 33.4945 20.0719 33.7406C20.318 33.9867 20.6519 34.125 21 34.125C21.3481 34.125 21.682 33.9867 21.9281 33.7406C22.1743 33.4945 22.3125 33.1607 22.3125 32.8125C22.3125 32.4644 22.1743 32.1306 21.9281 31.8845C21.682 31.6383 21.3481 31.5 21 31.5ZM21 27.5625C20.6519 27.5625 20.318 27.7008 20.0719 27.947C19.8258 28.1931 19.6875 28.5269 19.6875 28.875C19.6875 29.2232 19.8258 29.557 20.0719 29.8031C20.318 30.0492 20.6519 30.1875 21 30.1875C21.3481 30.1875 21.682 30.0492 21.9281 29.8031C22.1743 29.557 22.3125 29.2232 22.3125 28.875C22.3125 28.5269 22.1743 28.1931 21.9281 27.947C21.682 27.7008 21.3481 27.5625 21 27.5625ZM17.0625 31.5C16.7144 31.5 16.3805 31.6383 16.1344 31.8845C15.8883 32.1306 15.75 32.4644 15.75 32.8125C15.75 33.1607 15.8883 33.4945 16.1344 33.7406C16.3805 33.9867 16.7144 34.125 17.0625 34.125C17.4106 34.125 17.7445 33.9867 17.9906 33.7406C18.2368 33.4945 18.375 33.1607 18.375 32.8125C18.375 32.4644 18.2368 32.1306 17.9906 31.8845C17.7445 31.6383 17.4106 31.5 17.0625 31.5ZM13.125 35.4375C12.7769 35.4375 12.443 35.5758 12.1969 35.822C11.9508 36.0681 11.8125 36.4019 11.8125 36.75C11.8125 37.0982 11.9508 37.432 12.1969 37.6781C12.443 37.9242 12.7769 38.0625 13.125 38.0625C13.4731 38.0625 13.807 37.9242 14.0531 37.6781C14.2993 37.432 14.4375 37.0982 14.4375 36.75C14.4375 36.4019 14.2993 36.0681 14.0531 35.822C13.807 35.5758 13.4731 35.4375 13.125 35.4375ZM28.875 35.4375C28.5269 35.4375 28.193 35.5758 27.9469 35.822C27.7008 36.0681 27.5625 36.4019 27.5625 36.75C27.5625 37.0982 27.7008 37.432 27.9469 37.6781C28.193 37.9242 28.5269 38.0625 28.875 38.0625C29.2231 38.0625 29.557 37.9242 29.8031 37.6781C30.0493 37.432 30.1875 37.0982 30.1875 36.75C30.1875 36.4019 30.0493 36.0681 29.8031 35.822C29.557 35.5758 29.2231 35.4375 28.875 35.4375Z" fill="#0512FF"/>
</svg>
